<?xml version="1.0" encoding="UTF-8" standalone="no"?>
<!DOCTYPE svg PUBLIC "-//W3C//DTD SVG 1.1//EN" "http://www.w3.org/Graphics/SVG/1.1/DTD/svg11.dtd">
<svg width="100%" height="100%" viewBox="0 0 1188 440" version="1.1" xmlns="http://www.w3.org/2000/svg" xmlns:xlink="http://www.w3.org/1999/xlink" xml:space="preserve" xmlns:serif="http://www.serif.com/" style="fill-rule:evenodd;clip-rule:evenodd;stroke-linejoin:round;stroke-miterlimit:2;">
    <g transform="matrix(1,0,0,1,-1882.29,-4745.74)">
        <g transform="matrix(8.33333,0,0,8.33333,0,1.77636e-15)">
            <g transform="matrix(43.2182,0,0,43.2182,243.615,601.565)">
                <path d="M1.322,-0.67C1.291,-0.602 1.24,-0.536 1.167,-0.472C1.165,-0.434 1.148,-0.396 1.117,-0.356C1.086,-0.316 1.026,-0.254 0.935,-0.17C0.871,-0.111 0.816,-0.056 0.771,-0.004L0.759,0.009C0.763,-0.027 0.765,-0.064 0.765,-0.102C0.765,-0.161 0.762,-0.214 0.755,-0.261C0.643,-0.217 0.587,-0.158 0.587,-0.083C0.587,-0.063 0.594,-0.04 0.606,-0.016C0.572,-0.019 0.554,-0.038 0.554,-0.073C0.554,-0.111 0.572,-0.15 0.609,-0.189C0.645,-0.229 0.693,-0.262 0.753,-0.289C0.739,-0.406 0.709,-0.497 0.661,-0.563C0.595,-0.656 0.512,-0.702 0.413,-0.702C0.343,-0.702 0.285,-0.677 0.239,-0.627C0.192,-0.576 0.169,-0.513 0.169,-0.437C0.169,-0.389 0.18,-0.346 0.202,-0.305C0.224,-0.265 0.255,-0.233 0.293,-0.209C0.341,-0.18 0.393,-0.166 0.447,-0.166C0.47,-0.166 0.493,-0.169 0.517,-0.176L0.52,-0.167C0.481,-0.147 0.442,-0.138 0.4,-0.138C0.328,-0.138 0.268,-0.165 0.218,-0.219C0.168,-0.273 0.143,-0.339 0.143,-0.417C0.143,-0.509 0.173,-0.586 0.233,-0.648C0.292,-0.711 0.366,-0.742 0.454,-0.742C0.512,-0.742 0.566,-0.727 0.615,-0.696C0.664,-0.665 0.705,-0.622 0.736,-0.565C0.772,-0.503 0.797,-0.419 0.812,-0.313C0.819,-0.316 0.823,-0.317 0.823,-0.317L0.922,-0.352C0.994,-0.377 1.055,-0.408 1.106,-0.445L1.116,-0.453C1.112,-0.482 1.098,-0.509 1.074,-0.534C1.052,-0.557 1.024,-0.575 0.992,-0.587C0.96,-0.6 0.917,-0.609 0.863,-0.615L0.846,-0.617C0.862,-0.631 0.877,-0.647 0.891,-0.667C0.92,-0.665 0.962,-0.664 1.018,-0.664C1.154,-0.664 1.256,-0.666 1.322,-0.67ZM1.262,-0.629L1.246,-0.629L1.152,-0.627L1.063,-0.626L1.043,-0.626C1.119,-0.594 1.16,-0.55 1.166,-0.495C1.208,-0.532 1.24,-0.577 1.262,-0.629ZM1.111,-0.425C1.049,-0.372 0.981,-0.334 0.909,-0.311L0.824,-0.285C0.824,-0.285 0.821,-0.284 0.815,-0.282C0.817,-0.256 0.818,-0.226 0.818,-0.191C0.818,-0.147 0.817,-0.111 0.814,-0.081C0.835,-0.102 0.858,-0.125 0.883,-0.149L0.933,-0.196C0.994,-0.253 1.036,-0.298 1.061,-0.329C1.086,-0.361 1.103,-0.393 1.111,-0.425Z" style="fill:white;fill-rule:nonzero;"/>
            </g>
            <g transform="matrix(43.2182,0,0,43.2182,293.352,601.565)">
                <path d="M0.204,-0.417L0.204,-0.412C0.204,-0.382 0.184,-0.321 0.144,-0.23L0.107,-0.148C0.088,-0.104 0.078,-0.078 0.078,-0.068C0.077,-0.058 0.083,-0.053 0.094,-0.054C0.101,-0.054 0.111,-0.057 0.126,-0.064L0.133,-0.05C0.082,-0.025 0.041,-0.008 0.01,0.002C0.012,-0.028 0.017,-0.056 0.025,-0.082C0.033,-0.108 0.051,-0.151 0.079,-0.211C0.114,-0.288 0.132,-0.333 0.133,-0.346C0.133,-0.356 0.129,-0.361 0.12,-0.361C0.116,-0.361 0.11,-0.36 0.104,-0.357L0.083,-0.35C0.082,-0.35 0.079,-0.349 0.074,-0.347L0.069,-0.362L0.079,-0.366C0.115,-0.379 0.152,-0.394 0.189,-0.411L0.204,-0.417ZM0.232,-0.542C0.247,-0.542 0.255,-0.535 0.255,-0.52C0.255,-0.512 0.252,-0.504 0.245,-0.497C0.238,-0.49 0.231,-0.487 0.222,-0.487C0.207,-0.487 0.199,-0.494 0.199,-0.509C0.199,-0.518 0.203,-0.525 0.209,-0.532C0.216,-0.539 0.224,-0.542 0.232,-0.542Z" style="fill:white;fill-rule:nonzero;"/>
            </g>
            <g transform="matrix(43.2182,0,0,43.2182,301.052,601.565)">
                <path d="M0.277,-0.216C0.282,-0.207 0.284,-0.199 0.284,-0.192C0.284,-0.161 0.263,-0.125 0.219,-0.084C0.156,-0.024 0.102,0.005 0.058,0.005C0.02,0.005 0.001,-0.016 0.001,-0.06C0.001,-0.108 0.016,-0.16 0.046,-0.213C0.075,-0.267 0.114,-0.311 0.16,-0.346C0.217,-0.389 0.267,-0.41 0.312,-0.41C0.337,-0.41 0.35,-0.4 0.35,-0.381C0.35,-0.369 0.344,-0.354 0.332,-0.337C0.319,-0.319 0.304,-0.304 0.285,-0.29C0.268,-0.277 0.246,-0.265 0.219,-0.254C0.193,-0.244 0.173,-0.238 0.158,-0.238C0.143,-0.238 0.132,-0.247 0.126,-0.264C0.14,-0.262 0.151,-0.261 0.159,-0.261C0.192,-0.261 0.222,-0.27 0.249,-0.289C0.277,-0.308 0.291,-0.328 0.291,-0.35C0.291,-0.365 0.28,-0.373 0.26,-0.373C0.224,-0.373 0.187,-0.351 0.149,-0.307C0.123,-0.275 0.101,-0.239 0.083,-0.197C0.066,-0.156 0.058,-0.118 0.058,-0.086C0.058,-0.052 0.072,-0.036 0.1,-0.036C0.13,-0.036 0.162,-0.052 0.195,-0.086C0.228,-0.12 0.256,-0.163 0.277,-0.216Z" style="fill:white;fill-rule:nonzero;"/>
            </g>
            <g transform="matrix(22.2244,0,0,22.2244,297.233,616.036)">
                <path d="M0.513,-0.669C0.512,-0.648 0.497,-0.6 0.467,-0.526L0.431,-0.436L0.417,-0.4C0.437,-0.393 0.447,-0.377 0.449,-0.353C0.435,-0.357 0.419,-0.36 0.402,-0.361L0.398,-0.352L0.335,-0.192C0.306,-0.117 0.292,-0.075 0.292,-0.064C0.292,-0.055 0.296,-0.051 0.305,-0.051C0.314,-0.051 0.329,-0.057 0.35,-0.07C0.351,-0.07 0.352,-0.071 0.354,-0.073L0.364,-0.061C0.329,-0.037 0.279,-0.015 0.216,0.002L0.22,-0.014C0.231,-0.053 0.248,-0.102 0.271,-0.16C0.279,-0.178 0.286,-0.195 0.292,-0.21L0.347,-0.353L0.352,-0.364C0.316,-0.364 0.278,-0.354 0.238,-0.336C0.197,-0.317 0.161,-0.293 0.131,-0.263C0.074,-0.206 0.045,-0.147 0.045,-0.087C0.045,-0.059 0.055,-0.045 0.075,-0.045C0.095,-0.045 0.12,-0.059 0.15,-0.086C0.179,-0.114 0.206,-0.147 0.229,-0.186C0.25,-0.223 0.268,-0.265 0.281,-0.311C0.287,-0.299 0.29,-0.286 0.29,-0.272C0.29,-0.245 0.278,-0.214 0.255,-0.178C0.231,-0.142 0.2,-0.107 0.161,-0.074C0.103,-0.024 0.057,0 0.025,0C0,0 -0.012,-0.015 -0.012,-0.046C-0.012,-0.073 -0.003,-0.104 0.014,-0.139C0.031,-0.174 0.055,-0.208 0.083,-0.24C0.165,-0.329 0.259,-0.382 0.366,-0.4L0.379,-0.434L0.415,-0.526C0.425,-0.553 0.43,-0.571 0.431,-0.581C0.431,-0.595 0.424,-0.602 0.41,-0.602C0.401,-0.602 0.392,-0.6 0.381,-0.596L0.375,-0.61L0.383,-0.613C0.436,-0.633 0.48,-0.652 0.513,-0.669Z" style="fill:white;fill-rule:nonzero;"/>
            </g>
            <g transform="matrix(22.2244,0,0,22.2244,305.902,616.036)">
                <path d="M0.277,-0.216C0.282,-0.207 0.284,-0.199 0.284,-0.192C0.284,-0.161 0.263,-0.125 0.219,-0.084C0.156,-0.024 0.102,0.005 0.058,0.005C0.02,0.005 0.001,-0.016 0.001,-0.06C0.001,-0.108 0.016,-0.16 0.046,-0.213C0.075,-0.267 0.114,-0.311 0.16,-0.346C0.217,-0.389 0.267,-0.41 0.312,-0.41C0.337,-0.41 0.35,-0.4 0.35,-0.381C0.35,-0.369 0.344,-0.354 0.332,-0.337C0.319,-0.319 0.304,-0.304 0.285,-0.29C0.268,-0.277 0.246,-0.265 0.219,-0.254C0.193,-0.244 0.173,-0.238 0.158,-0.238C0.143,-0.238 0.132,-0.247 0.126,-0.264C0.14,-0.262 0.151,-0.261 0.159,-0.261C0.192,-0.261 0.222,-0.27 0.249,-0.289C0.277,-0.308 0.291,-0.328 0.291,-0.35C0.291,-0.365 0.28,-0.373 0.26,-0.373C0.224,-0.373 0.187,-0.351 0.149,-0.307C0.123,-0.275 0.101,-0.239 0.083,-0.197C0.066,-0.156 0.058,-0.118 0.058,-0.086C0.058,-0.052 0.072,-0.036 0.1,-0.036C0.13,-0.036 0.162,-0.052 0.195,-0.086C0.228,-0.12 0.256,-0.163 0.277,-0.216Z" style="fill:white;fill-rule:nonzero;"/>
            </g>
            <g transform="matrix(22.2244,0,0,22.2244,317.902,616.036)">
                <path d="M0.292,-0.671C0.292,-0.632 0.266,-0.552 0.213,-0.433C0.121,-0.225 0.075,-0.104 0.073,-0.07C0.073,-0.056 0.078,-0.049 0.091,-0.049C0.1,-0.05 0.117,-0.059 0.141,-0.078L0.147,-0.083L0.156,-0.07C0.104,-0.024 0.065,-0.001 0.041,-0.001C0.021,-0.001 0.012,-0.015 0.012,-0.042C0.012,-0.063 0.018,-0.093 0.032,-0.131C0.045,-0.169 0.078,-0.249 0.129,-0.372L0.175,-0.483C0.203,-0.55 0.217,-0.589 0.217,-0.6C0.217,-0.608 0.212,-0.613 0.202,-0.613C0.199,-0.613 0.19,-0.611 0.176,-0.606C0.175,-0.606 0.172,-0.605 0.169,-0.604L0.164,-0.618L0.171,-0.621C0.228,-0.643 0.268,-0.659 0.292,-0.671Z" style="fill:white;fill-rule:nonzero;"/>
            </g>
            <g transform="matrix(22.2244,0,0,22.2244,321.536,616.036)">
                <path d="M0.295,-0.677C0.296,-0.671 0.296,-0.666 0.296,-0.663C0.296,-0.633 0.287,-0.601 0.269,-0.567C0.251,-0.533 0.227,-0.504 0.197,-0.479L0.203,-0.49C0.228,-0.545 0.241,-0.586 0.241,-0.612L0.295,-0.677Z" style="fill:white;fill-rule:nonzero;"/>
            </g>
            <g transform="matrix(22.2244,0,0,22.2244,325.267,616.036)">
                <path d="M0.277,-0.216C0.282,-0.207 0.284,-0.199 0.284,-0.192C0.284,-0.161 0.263,-0.125 0.219,-0.084C0.156,-0.024 0.102,0.005 0.058,0.005C0.02,0.005 0.001,-0.016 0.001,-0.06C0.001,-0.108 0.016,-0.16 0.046,-0.213C0.075,-0.267 0.114,-0.311 0.16,-0.346C0.217,-0.389 0.267,-0.41 0.312,-0.41C0.337,-0.41 0.35,-0.4 0.35,-0.381C0.35,-0.369 0.344,-0.354 0.332,-0.337C0.319,-0.319 0.304,-0.304 0.285,-0.29C0.268,-0.277 0.246,-0.265 0.219,-0.254C0.193,-0.244 0.173,-0.238 0.158,-0.238C0.143,-0.238 0.132,-0.247 0.126,-0.264C0.14,-0.262 0.151,-0.261 0.159,-0.261C0.192,-0.261 0.222,-0.27 0.249,-0.289C0.277,-0.308 0.291,-0.328 0.291,-0.35C0.291,-0.365 0.28,-0.373 0.26,-0.373C0.224,-0.373 0.187,-0.351 0.149,-0.307C0.123,-0.275 0.101,-0.239 0.083,-0.197C0.066,-0.156 0.058,-0.118 0.058,-0.086C0.058,-0.052 0.072,-0.036 0.1,-0.036C0.13,-0.036 0.162,-0.052 0.195,-0.086C0.228,-0.12 0.256,-0.163 0.277,-0.216ZM0.338,-0.588L0.356,-0.545C0.299,-0.525 0.251,-0.484 0.215,-0.42C0.23,-0.513 0.271,-0.569 0.338,-0.588Z" style="fill:white;fill-rule:nonzero;"/>
            </g>
            <g transform="matrix(22.2244,0,0,22.2244,331.712,616.036)">
                <path d="M0.313,-0.176C0.272,-0.039 0.229,0.061 0.185,0.125C0.155,0.167 0.117,0.203 0.07,0.233C0.023,0.263 -0.02,0.277 -0.058,0.277C-0.075,0.277 -0.09,0.273 -0.101,0.265C-0.112,0.257 -0.117,0.246 -0.117,0.233C-0.117,0.225 -0.115,0.217 -0.112,0.208C-0.084,0.232 -0.052,0.244 -0.017,0.244C0.092,0.244 0.181,0.111 0.249,-0.155C0.206,-0.107 0.164,-0.069 0.125,-0.04C0.085,-0.011 0.054,0.003 0.031,0.003C0.004,0.003 -0.01,-0.014 -0.01,-0.049C-0.01,-0.089 0.008,-0.135 0.042,-0.186C0.077,-0.236 0.122,-0.281 0.176,-0.32C0.256,-0.376 0.34,-0.405 0.431,-0.405C0.451,-0.405 0.461,-0.399 0.461,-0.387C0.461,-0.382 0.459,-0.372 0.453,-0.359L0.451,-0.354C0.434,-0.356 0.414,-0.358 0.392,-0.358C0.328,-0.358 0.275,-0.349 0.232,-0.331C0.189,-0.313 0.15,-0.284 0.117,-0.244C0.096,-0.219 0.079,-0.192 0.065,-0.162C0.051,-0.132 0.044,-0.107 0.044,-0.086C0.044,-0.054 0.055,-0.039 0.075,-0.039C0.091,-0.039 0.113,-0.05 0.139,-0.074C0.166,-0.097 0.192,-0.126 0.216,-0.162C0.254,-0.217 0.278,-0.27 0.287,-0.32C0.3,-0.307 0.307,-0.293 0.307,-0.276C0.307,-0.248 0.291,-0.212 0.258,-0.167L0.264,-0.168L0.285,-0.171L0.306,-0.175L0.313,-0.176Z" style="fill:white;fill-rule:nonzero;"/>
            </g>
            <g transform="matrix(22.2244,0,0,22.2244,340.077,616.036)">
                <path d="M0.292,-0.671C0.292,-0.632 0.266,-0.552 0.213,-0.433C0.121,-0.225 0.075,-0.104 0.073,-0.07C0.073,-0.056 0.078,-0.049 0.091,-0.049C0.1,-0.05 0.117,-0.059 0.141,-0.078L0.147,-0.083L0.156,-0.07C0.104,-0.024 0.065,-0.001 0.041,-0.001C0.021,-0.001 0.012,-0.015 0.012,-0.042C0.012,-0.063 0.018,-0.093 0.032,-0.131C0.045,-0.169 0.078,-0.249 0.129,-0.372L0.175,-0.483C0.203,-0.55 0.217,-0.589 0.217,-0.6C0.217,-0.608 0.212,-0.613 0.202,-0.613C0.199,-0.613 0.19,-0.611 0.176,-0.606C0.175,-0.606 0.172,-0.605 0.169,-0.604L0.164,-0.618L0.171,-0.621C0.228,-0.643 0.268,-0.659 0.292,-0.671Z" style="fill:white;fill-rule:nonzero;"/>
            </g>
            <g transform="matrix(22.2244,0,0,22.2244,343.711,616.036)">
                <path d="M0.204,-0.417L0.204,-0.412C0.204,-0.382 0.184,-0.321 0.144,-0.23L0.107,-0.148C0.088,-0.104 0.078,-0.078 0.078,-0.068C0.077,-0.058 0.083,-0.053 0.094,-0.054C0.101,-0.054 0.111,-0.057 0.126,-0.064L0.133,-0.05C0.082,-0.025 0.041,-0.008 0.01,0.002C0.012,-0.028 0.017,-0.056 0.025,-0.082C0.033,-0.108 0.051,-0.151 0.079,-0.211C0.114,-0.288 0.132,-0.333 0.133,-0.346C0.133,-0.356 0.129,-0.361 0.12,-0.361C0.116,-0.361 0.11,-0.36 0.104,-0.357L0.083,-0.35C0.082,-0.35 0.079,-0.349 0.074,-0.347L0.069,-0.362L0.079,-0.366C0.115,-0.379 0.152,-0.394 0.189,-0.411L0.204,-0.417ZM0.232,-0.542C0.247,-0.542 0.255,-0.535 0.255,-0.52C0.255,-0.512 0.252,-0.504 0.245,-0.497C0.238,-0.49 0.231,-0.487 0.222,-0.487C0.207,-0.487 0.199,-0.494 0.199,-0.509C0.199,-0.518 0.203,-0.525 0.209,-0.532C0.216,-0.539 0.224,-0.542 0.232,-0.542Z" style="fill:white;fill-rule:nonzero;"/>
            </g>
            <g transform="matrix(22.2244,0,0,22.2244,347.67,616.036)">
                <path d="M0.298,-0.405L0.292,-0.396L0.269,-0.355C0.26,-0.341 0.251,-0.327 0.242,-0.313L0.236,-0.305L0.224,-0.313C0.226,-0.317 0.227,-0.319 0.228,-0.321C0.234,-0.335 0.238,-0.345 0.238,-0.351C0.238,-0.363 0.227,-0.369 0.205,-0.369C0.185,-0.369 0.168,-0.362 0.153,-0.347C0.138,-0.332 0.13,-0.315 0.13,-0.295C0.13,-0.285 0.134,-0.273 0.14,-0.258L0.164,-0.208C0.171,-0.191 0.175,-0.173 0.175,-0.152C0.175,-0.113 0.154,-0.076 0.11,-0.041C0.073,-0.01 0.04,0.005 0.011,0.005C-0.006,0.005 -0.02,0.001 -0.03,-0.008C-0.041,-0.016 -0.046,-0.027 -0.046,-0.04C-0.046,-0.055 -0.042,-0.07 -0.035,-0.084C-0.014,-0.049 0.011,-0.032 0.041,-0.032C0.064,-0.032 0.085,-0.04 0.104,-0.057C0.122,-0.073 0.131,-0.092 0.131,-0.113C0.131,-0.125 0.128,-0.138 0.121,-0.152L0.092,-0.215C0.087,-0.228 0.084,-0.241 0.084,-0.256C0.084,-0.283 0.099,-0.314 0.129,-0.347C0.149,-0.369 0.169,-0.385 0.189,-0.394C0.209,-0.403 0.234,-0.407 0.265,-0.407C0.276,-0.407 0.287,-0.406 0.298,-0.405Z" style="fill:white;fill-rule:nonzero;"/>
            </g>
            <g transform="matrix(22.2244,0,0,22.2244,352.671,616.036)">
                <path d="M0.277,-0.216C0.282,-0.207 0.284,-0.199 0.284,-0.192C0.284,-0.161 0.263,-0.125 0.219,-0.084C0.156,-0.024 0.102,0.005 0.058,0.005C0.02,0.005 0.001,-0.016 0.001,-0.06C0.001,-0.108 0.016,-0.16 0.046,-0.213C0.075,-0.267 0.114,-0.311 0.16,-0.346C0.217,-0.389 0.267,-0.41 0.312,-0.41C0.337,-0.41 0.35,-0.4 0.35,-0.381C0.35,-0.369 0.344,-0.354 0.332,-0.337C0.319,-0.319 0.304,-0.304 0.285,-0.29C0.268,-0.277 0.246,-0.265 0.219,-0.254C0.193,-0.244 0.173,-0.238 0.158,-0.238C0.143,-0.238 0.132,-0.247 0.126,-0.264C0.14,-0.262 0.151,-0.261 0.159,-0.261C0.192,-0.261 0.222,-0.27 0.249,-0.289C0.277,-0.308 0.291,-0.328 0.291,-0.35C0.291,-0.365 0.28,-0.373 0.26,-0.373C0.224,-0.373 0.187,-0.351 0.149,-0.307C0.123,-0.275 0.101,-0.239 0.083,-0.197C0.066,-0.156 0.058,-0.118 0.058,-0.086C0.058,-0.052 0.072,-0.036 0.1,-0.036C0.13,-0.036 0.162,-0.052 0.195,-0.086C0.228,-0.12 0.256,-0.163 0.277,-0.216Z" style="fill:white;fill-rule:nonzero;"/>
            </g>
        </g>
        <g transform="matrix(8.33333,0,0,8.33333,0,1.77636e-15)">
            <g transform="matrix(1,0,0,1,225.874,601.654)">
                <path d="M0,0C11.878,-1.241 23.755,-1.886 35.633,-2.351C47.51,-2.791 59.388,-2.995 71.266,-2.999C83.143,-3.004 95.021,-2.798 106.898,-2.358C118.776,-1.896 130.653,-1.249 142.531,0C130.653,1.25 118.776,1.896 106.898,2.359C95.021,2.799 83.143,3.004 71.266,2.999C59.388,2.996 47.51,2.791 35.633,2.351C23.755,1.886 11.878,1.241 0,0" style="fill:white;fill-rule:nonzero;"/>
            </g>
        </g>
    </g>
</svg>
