<?xml version="1.0" encoding="UTF-8" standalone="no"?><!DOCTYPE svg PUBLIC "-//W3C//DTD SVG 1.1//EN" "http://www.w3.org/Graphics/SVG/1.1/DTD/svg11.dtd"><svg width="100%" height="100%" viewBox="0 0 1762 300" version="1.1" xmlns="http://www.w3.org/2000/svg" xmlns:xlink="http://www.w3.org/1999/xlink" xml:space="preserve" xmlns:serif="http://www.serif.com/" style="fill-rule:evenodd;clip-rule:evenodd;stroke-linejoin:round;stroke-miterlimit:2;"><path d="M120.8,255.8c8.133,0 15.2,-0.633 21.2,-1.9c6,-1.267 11.267,-2.9 15.8,-4.9c4.533,-2 8.367,-4.1 11.5,-6.3c3.133,-2.2 5.9,-4.3 8.3,-6.3c2.4,-2 4.533,-3.633 6.4,-4.9c1.867,-1.267 3.733,-1.9 5.6,-1.9c1.733,0 3.133,0.333 4.2,1c1.067,0.667 1.933,1.333 2.6,2l18.2,22.6c-12.533,14.4 -27.267,25.433 -44.2,33.1c-16.933,7.667 -36.4,11.5 -58.4,11.5c-17.867,0 -33.733,-3.167 -47.6,-9.5c-13.867,-6.333 -25.567,-15.1 -35.1,-26.3c-9.533,-11.2 -16.8,-24.467 -21.8,-39.8c-5,-15.333 -7.5,-32.067 -7.5,-50.2c0,-16.667 1.8,-32.433 5.4,-47.3c3.6,-14.867 8.733,-28.6 15.4,-41.2c6.667,-12.6 14.633,-23.9 23.9,-33.9c9.267,-10 19.6,-18.533 31,-25.6c11.4,-7.067 23.667,-12.467 36.8,-16.2c13.133,-3.733 26.833,-5.6 41.1,-5.6c10.533,0 20.133,0.967 28.8,2.9c8.667,1.933 16.5,4.633 23.5,8.1c7,3.467 13.333,7.633 19,12.5c5.667,4.867 10.767,10.3 15.3,16.3l-18,21.6c-1.333,1.6 -2.9,3 -4.7,4.2c-1.8,1.2 -4.033,1.8 -6.7,1.8c-2.933,0 -5.733,-1.2 -8.4,-3.6c-2.667,-2.4 -6.033,-5.033 -10.1,-7.9c-4.067,-2.867 -9.333,-5.5 -15.8,-7.9c-6.467,-2.4 -14.967,-3.6 -25.5,-3.6c-13.867,0 -26.767,2.833 -38.7,8.5c-11.933,5.667 -22.3,13.767 -31.1,24.3c-8.8,10.533 -15.7,23.233 -20.7,38.1c-5,14.867 -7.5,31.567 -7.5,50.1c0,13.467 1.7,25.533 5.1,36.2c3.4,10.667 8.133,19.7 14.2,27.1c6.067,7.4 13.233,13.067 21.5,17c8.267,3.933 17.267,5.9 27,5.9Z" style="fill:#fff;fill-rule:nonzero;"/><path d="M317.166,261.6c8.266,0 15.733,-2.367 22.4,-7.1c6.666,-4.733 12.333,-11.067 17,-19c4.666,-7.933 8.266,-17.167 10.8,-27.7c2.533,-10.533 3.8,-21.6 3.8,-33.2c0,-16.667 -2.8,-28.9 -8.4,-36.7c-5.6,-7.8 -14.134,-11.7 -25.6,-11.7c-8.267,0 -15.767,2.333 -22.5,7c-6.734,4.667 -12.434,10.967 -17.1,18.9c-4.667,7.933 -8.267,17.167 -10.8,27.7c-2.534,10.533 -3.8,21.667 -3.8,33.4c0,16.667 2.8,28.9 8.4,36.7c5.6,7.8 14.2,11.7 25.8,11.7Zm-4.6,38c-11.334,0 -21.8,-1.9 -31.4,-5.7c-9.6,-3.8 -17.934,-9.367 -25,-16.7c-7.067,-7.333 -12.6,-16.333 -16.6,-27c-4,-10.667 -6,-22.867 -6,-36.6c0,-17.733 2.866,-34.267 8.6,-49.6c5.733,-15.333 13.5,-28.6 23.3,-39.8c9.8,-11.2 21.233,-20 34.3,-26.4c13.066,-6.4 27,-9.6 41.8,-9.6c11.333,0 21.833,1.9 31.5,5.7c9.666,3.8 18,9.367 25,16.7c7,7.333 12.5,16.333 16.5,27c4,10.667 6,22.867 6,36.6c0,17.6 -2.867,34.033 -8.6,49.3c-5.734,15.267 -13.5,28.533 -23.3,39.8c-9.8,11.267 -21.234,20.133 -34.3,26.6c-13.067,6.467 -27,9.7 -41.8,9.7Z" style="fill:#fff;fill-rule:nonzero;"/><path d="M507.131,133.8c10.4,-15.333 21.934,-26.767 34.6,-34.3c12.667,-7.533 25.734,-11.3 39.2,-11.3c8.534,0 16.2,1.733 23,5.2c6.8,3.467 12.4,8.5 16.8,15.1c4.4,6.6 7.5,14.733 9.3,24.4c1.8,9.667 1.9,20.7 0.3,33.1l-15.4,130.6l-49.4,0l15.4,-130.6c1.734,-13.333 1.067,-22.9 -2,-28.7c-3.066,-5.8 -8.666,-8.7 -16.8,-8.7c-5.466,0 -11.066,1.567 -16.8,4.7c-5.733,3.133 -11.266,7.6 -16.6,13.4c-5.333,5.8 -10.233,12.733 -14.7,20.8c-4.466,8.067 -8.1,17.1 -10.9,27.1l-11.4,102l-49.4,0l24.6,-205.4l25,0c5.2,0 9.234,1.267 12.1,3.8c2.867,2.533 4.3,6.6 4.3,12.2l-1.2,26.6Z" style="fill:#fff;fill-rule:nonzero;"/><path d="M723.497,133.8c10.4,-15.333 21.933,-26.767 34.6,-34.3c12.667,-7.533 25.733,-11.3 39.2,-11.3c8.533,0 16.2,1.733 23,5.2c6.8,3.467 12.4,8.5 16.8,15.1c4.4,6.6 7.5,14.733 9.3,24.4c1.8,9.667 1.9,20.7 0.3,33.1l-15.4,130.6l-49.4,0l15.4,-130.6c1.733,-13.333 1.067,-22.9 -2,-28.7c-3.067,-5.8 -8.667,-8.7 -16.8,-8.7c-5.467,0 -11.067,1.567 -16.8,4.7c-5.733,3.133 -11.267,7.6 -16.6,13.4c-5.333,5.8 -10.233,12.733 -14.7,20.8c-4.467,8.067 -8.1,17.1 -10.9,27.1l-11.4,102l-49.4,0l24.6,-205.4l25,0c5.2,0 9.233,1.267 12.1,3.8c2.867,2.533 4.3,6.6 4.3,12.2l-1.2,26.6Z" style="fill:#fff;fill-rule:nonzero;"/><path d="M981.863,123c-6.667,0 -12.867,1.367 -18.6,4.1c-5.733,2.733 -10.9,6.567 -15.5,11.5c-4.6,4.933 -8.6,10.833 -12,17.7c-3.4,6.867 -6.1,14.367 -8.1,22.5c16.533,-2.267 29.833,-4.767 39.9,-7.5c10.067,-2.733 17.833,-5.667 23.3,-8.8c5.467,-3.133 9.1,-6.533 10.9,-10.2c1.8,-3.667 2.7,-7.5 2.7,-11.5c0,-2 -0.433,-4.067 -1.3,-6.2c-0.867,-2.133 -2.2,-4.033 -4,-5.7c-1.8,-1.667 -4.133,-3.067 -7,-4.2c-2.867,-1.133 -6.3,-1.7 -10.3,-1.7Zm-58.4,90c0,32.267 13.667,48.4 41,48.4c5.867,0 11.067,-0.567 15.6,-1.7c4.533,-1.133 8.5,-2.5 11.9,-4.1c3.4,-1.6 6.467,-3.4 9.2,-5.4c2.733,-2 5.267,-3.8 7.6,-5.4c2.333,-1.6 4.633,-2.967 6.9,-4.1c2.267,-1.133 4.733,-1.7 7.4,-1.7c1.6,0 3.167,0.4 4.7,1.2c1.533,0.8 2.9,1.867 4.1,3.2l12.6,15.2c-7.067,7.067 -14,13.2 -20.8,18.4c-6.8,5.2 -13.733,9.467 -20.8,12.8c-7.067,3.333 -14.533,5.8 -22.4,7.4c-7.867,1.6 -16.4,2.4 -25.6,2.4c-12,0 -22.867,-2.033 -32.6,-6.1c-9.733,-4.067 -18.067,-9.8 -25,-17.2c-6.933,-7.4 -12.3,-16.333 -16.1,-26.8c-3.8,-10.467 -5.7,-22.167 -5.7,-35.1c0,-10.8 1.167,-21.4 3.5,-31.8c2.333,-10.4 5.7,-20.267 10.1,-29.6c4.4,-9.333 9.8,-17.933 16.2,-25.8c6.4,-7.867 13.633,-14.667 21.7,-20.4c8.067,-5.733 16.933,-10.2 26.6,-13.4c9.667,-3.2 20.033,-4.8 31.1,-4.8c10.667,0 20.033,1.533 28.1,4.6c8.067,3.067 14.8,7.033 20.2,11.9c5.4,4.867 9.433,10.3 12.1,16.3c2.667,6 4,11.867 4,17.6c0,9.2 -1.833,17.6 -5.5,25.2c-3.667,7.6 -10.2,14.4 -19.6,20.4c-9.4,6 -22.233,11.167 -38.5,15.5c-16.267,4.333 -36.933,7.767 -62,10.3l0,2.6Z" style="fill:#fff;fill-rule:nonzero;"/><path d="M1189.03,185.8l52.6,110.8l-44.8,0c-3.334,0 -5.967,-0.9 -7.9,-2.7c-1.934,-1.8 -3.434,-3.9 -4.5,-6.3l-31.6,-72.2c-0.667,1.6 -1.367,3.1 -2.1,4.5c-0.734,1.4 -1.567,2.767 -2.5,4.1l-45.6,63.6c-1.734,2.267 -3.634,4.333 -5.7,6.2c-2.067,1.867 -4.7,2.8 -7.9,2.8l-43.4,0l81.4,-110.8l-47.4,-94.4l44.8,0c3.333,0 5.733,0.467 7.2,1.4c1.466,0.933 2.733,2.533 3.8,4.8l28,61c0.8,-1.6 1.666,-3.2 2.6,-4.8c0.933,-1.6 2,-3.267 3.2,-5l36.2,-50.4c2.933,-4.667 6.533,-7 10.8,-7l44.8,0l-72,94.4Z" style="fill:#fff;fill-rule:nonzero;"/><path d="M1339.79,91.4l-24.6,205.2l-48.6,0l24.6,-205.2l48.6,0Zm12.6,-59.8c0,4.267 -0.9,8.267 -2.7,12c-1.8,3.733 -4.166,7 -7.1,9.8c-2.933,2.8 -6.266,5.033 -10,6.7c-3.733,1.667 -7.6,2.5 -11.6,2.5c-3.866,0 -7.6,-0.833 -11.2,-2.5c-3.6,-1.667 -6.8,-3.9 -9.6,-6.7c-2.8,-2.8 -5.033,-6.067 -6.7,-9.8c-1.666,-3.733 -2.5,-7.733 -2.5,-12c0,-4.267 0.867,-8.333 2.6,-12.2c1.734,-3.867 4,-7.233 6.8,-10.1c2.8,-2.867 6.034,-5.133 9.7,-6.8c3.667,-1.667 7.434,-2.5 11.3,-2.5c4,0 7.867,0.833 11.6,2.5c3.734,1.667 7.034,3.9 9.9,6.7c2.867,2.8 5.167,6.133 6.9,10c1.734,3.867 2.6,8 2.6,12.4Z" style="fill:#fff;fill-rule:nonzero;"/><path d="M1446.96,261.6c8.267,0 15.733,-2.367 22.4,-7.1c6.667,-4.733 12.333,-11.067 17,-19c4.667,-7.933 8.267,-17.167 10.8,-27.7c2.533,-10.533 3.8,-21.6 3.8,-33.2c0,-16.667 -2.8,-28.9 -8.4,-36.7c-5.6,-7.8 -14.133,-11.7 -25.6,-11.7c-8.267,0 -15.767,2.333 -22.5,7c-6.733,4.667 -12.433,10.967 -17.1,18.9c-4.667,7.933 -8.267,17.167 -10.8,27.7c-2.533,10.533 -3.8,21.667 -3.8,33.4c0,16.667 2.8,28.9 8.4,36.7c5.6,7.8 14.2,11.7 25.8,11.7Zm-4.6,38c-11.333,0 -21.8,-1.9 -31.4,-5.7c-9.6,-3.8 -17.933,-9.367 -25,-16.7c-7.067,-7.333 -12.6,-16.333 -16.6,-27c-4,-10.667 -6,-22.867 -6,-36.6c0,-17.733 2.867,-34.267 8.6,-49.6c5.733,-15.333 13.5,-28.6 23.3,-39.8c9.8,-11.2 21.233,-20 34.3,-26.4c13.067,-6.4 27,-9.6 41.8,-9.6c11.333,0 21.833,1.9 31.5,5.7c9.667,3.8 18,9.367 25,16.7c7,7.333 12.5,16.333 16.5,27c4,10.667 6,22.867 6,36.6c0,17.6 -2.867,34.033 -8.6,49.3c-5.733,15.267 -13.5,28.533 -23.3,39.8c-9.8,11.267 -21.233,20.133 -34.3,26.6c-13.067,6.467 -27,9.7 -41.8,9.7Z" style="fill:#fff;fill-rule:nonzero;"/><path d="M1636.93,133.8c10.4,-15.333 21.933,-26.767 34.6,-34.3c12.666,-7.533 25.733,-11.3 39.2,-11.3c8.533,0 16.2,1.733 23,5.2c6.8,3.467 12.4,8.5 16.8,15.1c4.4,6.6 7.5,14.733 9.3,24.4c1.8,9.667 1.9,20.7 0.3,33.1l-15.4,130.6l-49.4,0l15.4,-130.6c1.733,-13.333 1.066,-22.9 -2,-28.7c-3.067,-5.8 -8.667,-8.7 -16.8,-8.7c-5.467,0 -11.067,1.567 -16.8,4.7c-5.734,3.133 -11.267,7.6 -16.6,13.4c-5.334,5.8 -10.234,12.733 -14.7,20.8c-4.467,8.067 -8.1,17.1 -10.9,27.1l-11.4,102l-49.4,0l24.6,-205.4l25,0c5.2,0 9.233,1.267 12.1,3.8c2.866,2.533 4.3,6.6 4.3,12.2l-1.2,26.6Z" style="fill:#fff;fill-rule:nonzero;"/></svg>