<?xml version="1.0" encoding="UTF-8" standalone="no"?><!DOCTYPE svg PUBLIC "-//W3C//DTD SVG 1.1//EN" "http://www.w3.org/Graphics/SVG/1.1/DTD/svg11.dtd"><svg width="100%" height="100%" viewBox="0 0 1171 138" version="1.1" xmlns="http://www.w3.org/2000/svg" xmlns:xlink="http://www.w3.org/1999/xlink" xml:space="preserve" xmlns:serif="http://www.serif.com/" style="fill-rule:evenodd;clip-rule:evenodd;stroke-linejoin:round;stroke-miterlimit:2;"><path d="M0.003,111.967c-0.053,-2.214 0.698,-4.019 2.253,-5.416c1.555,-1.397 3.466,-2.096 5.733,-2.096c2.583,0 4.85,1.476 6.8,4.428c2.689,4.007 5.087,6.722 7.196,8.145c4.481,2.952 10.991,4.428 19.531,4.428c8.171,0 15.762,-1.766 22.773,-5.298c8.961,-4.533 13.442,-10.833 13.442,-18.898c0,-6.642 -3.769,-11.888 -11.307,-15.736c-6.379,-3.321 -14.26,-5.113 -23.643,-5.377c-8.329,-0.316 -15.419,-2.135 -21.271,-5.456c-7.485,-4.27 -11.228,-10.385 -11.228,-18.345c0,-9.383 5.324,-17.949 15.973,-25.698c10.174,-7.328 20.691,-10.992 31.55,-10.992c5.113,0 10.886,0.87 17.317,2.61c8.54,2.267 12.81,5.166 12.81,8.698c0,4.639 -2.372,6.958 -7.117,6.958c-2.108,0 -5.799,-0.566 -11.07,-1.7c-5.272,-1.133 -9.357,-1.673 -12.256,-1.621c-8.224,0.106 -15.209,2.135 -20.955,6.089c-5.904,4.059 -8.856,8.988 -8.856,14.786c0,4.376 3.901,7.46 11.703,9.252c2.899,0.685 8.513,1.318 16.842,1.898c12.072,0.896 21.508,4.691 28.309,11.386c6.22,6.115 9.33,13.574 9.33,22.378c0,12.546 -5.799,22.562 -17.396,30.048c-10.068,6.484 -21.745,9.726 -35.029,9.726c-9.647,0 -18.477,-1.845 -26.49,-5.536c-9.805,-4.533 -14.786,-10.753 -14.944,-18.661Z" style="fill:#fff;fill-rule:nonzero;"/><path d="M149.609,135.294c-11.914,0 -21.561,-2.979 -28.941,-8.935c-8.066,-6.59 -12.098,-15.815 -12.098,-27.676c0,-13.706 3.321,-25.198 9.963,-34.476c7.222,-10.121 16.869,-15.182 28.941,-15.182c8.75,0 15.893,1.476 21.428,4.428c6.801,3.638 10.201,9.225 10.201,16.764c0,5.271 -2.979,10.068 -8.935,14.391c-2.636,1.898 -8.224,4.85 -16.764,8.856l-30.206,14.312c2.952,4.376 6.629,7.67 11.031,9.885c4.402,2.214 9.528,3.321 15.38,3.321c3.637,0 7.907,-0.686 12.809,-2.056c6.221,-1.74 10.227,-4.02 12.019,-6.84c1.793,-2.82 3.717,-4.231 5.773,-4.231c1.845,0 3.492,0.699 4.942,2.096c1.45,1.397 2.174,3.018 2.174,4.863c0,5.851 -4.718,10.886 -14.154,15.103c-8.065,3.584 -15.92,5.377 -23.563,5.377Zm-2.135,-72.036c-6.432,0 -11.782,2.491 -16.052,7.473c-4.27,4.981 -7.459,12.48 -9.568,22.496l24.275,-11.545c9.542,-4.639 16.342,-8.671 20.401,-12.098c-4.533,-4.217 -10.886,-6.326 -19.056,-6.326Z" style="fill:#fff;fill-rule:nonzero;"/><path d="M322.62,61.835c-0.632,7.749 -0.949,15.498 -0.949,23.247c0,17.555 0.817,30.813 2.452,39.774c0.105,0.738 0.158,1.344 0.158,1.819c0,2.108 -0.738,3.848 -2.214,5.219c-1.476,1.37 -3.19,2.056 -5.14,2.056c-3.268,0 -5.667,-2.373 -7.196,-7.117c-3.795,2.794 -7.736,4.903 -11.821,6.326c-4.086,1.423 -8.342,2.135 -12.77,2.135c-10.912,0 -19.953,-3.638 -27.122,-10.912c-7.381,-7.433 -11.071,-16.975 -11.071,-28.625c0,-14.075 3.73,-25.356 11.189,-33.843c7.459,-8.487 17.146,-12.731 29.06,-12.731c6.114,0 10.832,0.949 14.154,2.847l7.432,5.456c0.738,-22.193 1.608,-37.138 2.61,-44.834c0.685,-4.692 3.084,-7.038 7.195,-7.038c4.798,0 7.196,2.557 7.196,7.67c0,7.328 -1.054,23.511 -3.163,48.551Zm-35.108,2.056c-8.856,0 -15.499,2.623 -19.927,7.868c-4.428,5.245 -6.642,13.139 -6.642,23.682c0,6.8 2.412,12.652 7.235,17.554c4.824,4.903 10.478,7.354 16.962,7.354c4.428,0 8.17,-0.817 11.228,-2.451c1.792,-0.949 4.718,-3.137 8.777,-6.563c0.791,-0.686 1.555,-1.503 2.293,-2.452l-0.237,-13.679l0.079,-9.173l0.158,-9.33c-2.003,-4.27 -4.665,-7.473 -7.986,-9.608c-3.321,-2.135 -7.301,-3.202 -11.94,-3.202Z" style="fill:#fff;fill-rule:nonzero;"/><path d="M381.846,135.294c-11.914,0 -21.561,-2.979 -28.941,-8.935c-8.065,-6.59 -12.098,-15.815 -12.098,-27.676c0,-13.706 3.321,-25.198 9.963,-34.476c7.222,-10.121 16.869,-15.182 28.941,-15.182c8.751,0 15.894,1.476 21.429,4.428c6.8,3.638 10.2,9.225 10.2,16.764c0,5.271 -2.978,10.068 -8.935,14.391c-2.636,1.898 -8.224,4.85 -16.764,8.856l-30.206,14.312c2.953,4.376 6.629,7.67 11.031,9.885c4.402,2.214 9.528,3.321 15.38,3.321c3.637,0 7.907,-0.686 12.81,-2.056c6.22,-1.74 10.226,-4.02 12.019,-6.84c1.792,-2.82 3.716,-4.231 5.772,-4.231c1.845,0 3.492,0.699 4.942,2.096c1.45,1.397 2.175,3.018 2.175,4.863c0,5.851 -4.718,10.886 -14.154,15.103c-8.066,3.584 -15.92,5.377 -23.564,5.377Zm-2.135,-72.036c-6.431,0 -11.782,2.491 -16.052,7.473c-4.27,4.981 -7.459,12.48 -9.568,22.496l24.276,-11.545c9.541,-4.639 16.341,-8.671 20.4,-12.098c-4.533,-4.217 -10.885,-6.326 -19.056,-6.326Zm1.265,-25.461c-1.898,0 -3.571,-0.738 -5.021,-2.214c-1.45,-1.476 -2.175,-3.163 -2.175,-5.061c0,-1.792 0.817,-3.505 2.452,-5.14c2.266,-2.214 5.719,-6.404 10.358,-12.572c3.479,-4.534 7.354,-8.303 11.624,-11.308c1.423,-1.001 2.82,-1.502 4.191,-1.502c1.898,0 3.558,0.751 4.981,2.254c1.424,1.502 2.135,3.202 2.135,5.1c0,2.108 -1.001,3.953 -3.004,5.535c-3.691,2.952 -7.249,6.774 -10.675,11.465c-3.585,4.956 -6.985,8.778 -10.201,11.466c-1.476,1.318 -3.031,1.977 -4.665,1.977Z" style="fill:#fff;fill-rule:nonzero;"/><path d="M469.38,136.638c-10.807,0 -19.821,-3.268 -27.043,-9.805c-7.591,-6.853 -11.387,-15.894 -11.387,-27.122c0,-10.701 3.558,-21.745 10.675,-33.132c7.907,-12.651 16.816,-18.977 26.727,-18.977c5.166,0 10.938,1.212 17.317,3.637c8.065,3.11 12.098,6.906 12.098,11.387c0,2.003 -0.659,3.782 -1.977,5.337c-1.318,1.555 -2.952,2.333 -4.903,2.333c-1.528,0 -2.859,-0.461 -3.993,-1.384c-1.133,-0.922 -2.227,-1.832 -3.281,-2.728c-3.111,-2.478 -8.198,-3.716 -15.261,-3.716c-5.377,0 -10.702,4.797 -15.973,14.391c-4.797,8.803 -7.196,16.421 -7.196,22.852c0,6.958 2.372,12.441 7.117,16.447c4.428,3.743 10.121,5.614 17.08,5.614c3.162,0 6.536,-0.843 10.121,-2.53l9.172,-4.903c1.582,-0.843 2.715,-1.265 3.4,-1.265c1.951,0 3.638,0.778 5.061,2.333c1.423,1.555 2.135,3.334 2.135,5.337c0,3.849 -4.059,7.565 -12.177,11.15c-7.117,3.163 -13.021,4.744 -17.712,4.744Z" style="fill:#fff;fill-rule:nonzero;"/><path d="M546.476,136.322c-8.857,0 -16.474,-3.269 -22.852,-9.805c-7.117,-7.275 -10.86,-17.054 -11.229,-29.336c-0.316,-11.914 2.689,-22.404 9.015,-31.471c7.38,-10.702 17.659,-16.052 30.838,-16.052c10.543,0 18.529,4.823 23.959,14.47c4.323,7.802 6.405,17.185 6.247,28.15c-0.158,11.703 -3.216,21.692 -9.173,29.969c-6.747,9.383 -15.682,14.075 -26.805,14.075Zm4.744,-70.612c-7.749,-0.053 -13.785,3.637 -18.108,11.07c-3.426,5.957 -5.139,12.757 -5.139,20.401c0,7.643 2.082,13.6 6.246,17.87c3.48,3.532 7.565,5.298 12.257,5.298c5.482,0 10.2,-2.003 14.154,-6.01c4.481,-4.428 6.853,-10.411 7.116,-17.949c0.738,-20.401 -4.77,-30.628 -16.526,-30.68Z" style="fill:#fff;fill-rule:nonzero;"/><path d="M662.634,137.271c-4.534,0 -7.09,-2.478 -7.67,-7.433l-2.214,-17.317c-0.738,-6.168 -1.107,-11.94 -1.107,-17.317c0,-1.476 0.092,-3.98 0.276,-7.512c0.185,-3.532 0.277,-6.036 0.277,-7.512c0,-11.387 -2.108,-17.08 -6.326,-17.08c-5.904,0 -11.544,3.506 -16.921,10.517c-4.85,6.378 -8.646,14.444 -11.387,24.196c-0.105,2.056 -0.342,4.639 -0.711,7.749c-0.317,2.636 -0.475,5.193 -0.475,7.67c0,1.582 0.158,3.954 0.475,7.117c0.316,3.163 0.474,5.535 0.474,7.117c0,2.372 -0.725,4.296 -2.174,5.772c-1.45,1.476 -3.308,2.214 -5.575,2.214c-2.32,0 -4.191,-0.738 -5.614,-2.214c-1.424,-1.476 -2.135,-3.4 -2.135,-5.772c0,-1.582 -0.172,-3.954 -0.514,-7.117c-0.343,-3.163 -0.514,-5.535 -0.514,-7.117c0,-5.429 0.382,-12.954 1.146,-22.575c0.765,-9.62 1.147,-17.146 1.147,-22.575c0,-1.687 -0.092,-4.191 -0.277,-7.512c-0.184,-3.321 -0.277,-5.825 -0.277,-7.512c0,-2.267 0.752,-4.125 2.254,-5.575c1.502,-1.449 3.361,-2.174 5.575,-2.174c4.849,0 7.512,3.426 7.986,10.279l0.237,9.252c8.856,-11.808 17.95,-17.713 27.28,-17.713c8.435,0 14.313,3.717 17.634,11.15c2.266,4.955 3.505,12.282 3.716,21.982l0,7.986l-0.079,7.354c0,4.376 0.567,10.029 1.7,16.961c1.133,6.932 1.7,12.56 1.7,16.882c0,2.32 -0.751,4.204 -2.253,5.654c-1.503,1.45 -3.387,2.175 -5.654,2.175Z" style="fill:#fff;fill-rule:nonzero;"/><path d="M747.4,137.271c-4.534,0 -7.09,-2.478 -7.67,-7.433l-2.214,-17.317c-0.738,-6.168 -1.107,-11.94 -1.107,-17.317c0,-1.476 0.092,-3.98 0.277,-7.512c0.184,-3.532 0.276,-6.036 0.276,-7.512c0,-11.387 -2.108,-17.08 -6.325,-17.08c-5.905,0 -11.545,3.506 -16.922,10.517c-4.85,6.378 -8.645,14.444 -11.387,24.196c-0.105,2.056 -0.342,4.639 -0.711,7.749c-0.317,2.636 -0.475,5.193 -0.475,7.67c0,1.582 0.158,3.954 0.475,7.117c0.316,3.163 0.474,5.535 0.474,7.117c0,2.372 -0.725,4.296 -2.174,5.772c-1.45,1.476 -3.308,2.214 -5.575,2.214c-2.319,0 -4.191,-0.738 -5.614,-2.214c-1.423,-1.476 -2.135,-3.4 -2.135,-5.772c0,-1.582 -0.171,-3.954 -0.514,-7.117c-0.343,-3.163 -0.514,-5.535 -0.514,-7.117c0,-5.429 0.382,-12.954 1.147,-22.575c0.764,-9.62 1.146,-17.146 1.146,-22.575c0,-1.687 -0.092,-4.191 -0.277,-7.512c-0.184,-3.321 -0.276,-5.825 -0.276,-7.512c0,-2.267 0.751,-4.125 2.253,-5.575c1.503,-1.449 3.361,-2.174 5.575,-2.174c4.85,0 7.512,3.426 7.986,10.279l0.237,9.252c8.857,-11.808 17.95,-17.713 27.281,-17.713c8.434,0 14.312,3.717 17.633,11.15c2.267,4.955 3.505,12.282 3.716,21.982l0,7.986l-0.079,7.354c0,4.376 0.567,10.029 1.7,16.961c1.134,6.932 1.7,12.56 1.7,16.882c0,2.32 -0.751,4.204 -2.253,5.654c-1.503,1.45 -3.387,2.175 -5.654,2.175Z" style="fill:#fff;fill-rule:nonzero;"/><path d="M808.444,135.294c-11.913,0 -21.56,-2.979 -28.94,-8.935c-8.066,-6.59 -12.099,-15.815 -12.099,-27.676c0,-13.706 3.322,-25.198 9.964,-34.476c7.222,-10.121 16.869,-15.182 28.94,-15.182c8.751,0 15.894,1.476 21.429,4.428c6.8,3.638 10.201,9.225 10.201,16.764c0,5.271 -2.979,10.068 -8.936,14.391c-2.635,1.898 -8.223,4.85 -16.763,8.856l-30.206,14.312c2.952,4.376 6.629,7.67 11.031,9.885c4.401,2.214 9.528,3.321 15.379,3.321c3.638,0 7.908,-0.686 12.81,-2.056c6.221,-1.74 10.227,-4.02 12.019,-6.84c1.793,-2.82 3.717,-4.231 5.773,-4.231c1.845,0 3.492,0.699 4.942,2.096c1.449,1.397 2.174,3.018 2.174,4.863c0,5.851 -4.718,10.886 -14.154,15.103c-8.065,3.584 -15.92,5.377 -23.564,5.377Zm-2.135,-72.036c-6.431,0 -11.782,2.491 -16.051,7.473c-4.27,4.981 -7.46,12.48 -9.568,22.496l24.275,-11.545c9.542,-4.639 16.342,-8.671 20.401,-12.098c-4.534,-4.217 -10.886,-6.326 -19.057,-6.326Z" style="fill:#fff;fill-rule:nonzero;"/><path d="M895.978,136.638c-10.807,0 -19.821,-3.268 -27.043,-9.805c-7.591,-6.853 -11.386,-15.894 -11.386,-27.122c0,-10.701 3.558,-21.745 10.674,-33.132c7.908,-12.651 16.817,-18.977 26.727,-18.977c5.166,0 10.939,1.212 17.317,3.637c8.066,3.11 12.098,6.906 12.098,11.387c0,2.003 -0.659,3.782 -1.977,5.337c-1.317,1.555 -2.952,2.333 -4.902,2.333c-1.529,0 -2.86,-0.461 -3.993,-1.384c-1.134,-0.922 -2.228,-1.832 -3.282,-2.728c-3.11,-2.478 -8.197,-3.716 -15.261,-3.716c-5.377,0 -10.701,4.797 -15.973,14.391c-4.797,8.803 -7.195,16.421 -7.195,22.852c0,6.958 2.372,12.441 7.116,16.447c4.428,3.743 10.122,5.614 17.08,5.614c3.163,0 6.537,-0.843 10.121,-2.53l9.173,-4.903c1.581,-0.843 2.715,-1.265 3.4,-1.265c1.95,0 3.637,0.778 5.061,2.333c1.423,1.555 2.135,3.334 2.135,5.337c0,3.849 -4.059,7.565 -12.178,11.15c-7.116,3.163 -13.02,4.744 -17.712,4.744Z" style="fill:#fff;fill-rule:nonzero;"/><path d="M996.322,64.286c-1.107,0 -2.412,-0.052 -3.914,-0.158c-1.503,-0.105 -2.808,-0.158 -3.915,-0.158c-1.212,0 -4.797,0.395 -10.754,1.186l1.503,46.732l0.158,7.512c0.211,11.545 -2.557,17.317 -8.303,17.317c-2.108,0 -3.94,-0.685 -5.495,-2.056c-1.555,-1.37 -2.333,-3.084 -2.333,-5.14c0,-2.003 0.079,-5.007 0.237,-9.014c0.158,-4.006 0.238,-7.011 0.238,-9.014l-1.582,-46.179c-3.848,-0.158 -9.7,-0.606 -17.554,-1.344c-4.692,-0.633 -7.038,-3.242 -7.038,-7.828c0,-2.32 0.712,-4.244 2.135,-5.773c1.424,-1.528 3.242,-2.293 5.456,-2.293l16.606,1.345c0,-2.689 -0.119,-6.287 -0.356,-10.794c-0.237,-4.507 -0.356,-7.762 -0.356,-9.765c0,-2.214 0.764,-4.046 2.293,-5.496c1.529,-1.45 3.4,-2.174 5.614,-2.174c4.745,0 7.512,3.874 8.303,11.623c0.158,1.951 0.237,4.297 0.237,7.038l-0.158,4.586l-0.079,4.903c6.537,-0.844 10.28,-1.266 11.228,-1.266c5.483,0 9.067,0.264 10.754,0.791c3.216,1.054 4.824,3.532 4.824,7.433c0,2.319 -0.725,4.23 -2.175,5.733c-1.449,1.502 -3.308,2.253 -5.574,2.253Z" style="fill:#fff;fill-rule:nonzero;"/><path d="M1056.65,135.294c-11.913,0 -21.56,-2.979 -28.94,-8.935c-8.066,-6.59 -12.099,-15.815 -12.099,-27.676c0,-13.706 3.321,-25.198 9.964,-34.476c7.222,-10.121 16.868,-15.182 28.94,-15.182c8.751,0 15.894,1.476 21.429,4.428c6.8,3.638 10.2,9.225 10.2,16.764c0,5.271 -2.978,10.068 -8.935,14.391c-2.636,1.898 -8.223,4.85 -16.763,8.856l-30.206,14.312c2.952,4.376 6.629,7.67 11.031,9.885c4.401,2.214 9.528,3.321 15.379,3.321c3.638,0 7.908,-0.686 12.81,-2.056c6.22,-1.74 10.227,-4.02 12.019,-6.84c1.792,-2.82 3.717,-4.231 5.772,-4.231c1.846,0 3.493,0.699 4.943,2.096c1.449,1.397 2.174,3.018 2.174,4.863c0,5.851 -4.718,10.886 -14.154,15.103c-8.065,3.584 -15.92,5.377 -23.564,5.377Zm-2.135,-72.036c-6.431,0 -11.782,2.491 -16.052,7.473c-4.269,4.981 -7.459,12.48 -9.567,22.496l24.275,-11.545c9.542,-4.639 16.342,-8.671 20.401,-12.098c-4.534,-4.217 -10.886,-6.326 -19.057,-6.326Z" style="fill:#fff;fill-rule:nonzero;"/><path d="M1169.97,73.222c-0.369,6.589 -3.005,9.884 -7.908,9.884c-4.533,0 -6.8,-2.61 -6.8,-7.829c0,-1.001 -0.079,-2.846 -0.237,-5.535l-0.237,-6.642c-8.329,1.002 -14.998,3.348 -20.006,7.038c-4.691,3.426 -8.592,8.592 -11.702,15.498l0.158,43.332c0,5.324 -2.61,7.986 -7.829,7.986c-4.638,0 -6.958,-2.662 -6.958,-7.986l0,-55.509c0,-1.74 0.066,-4.349 0.198,-7.828c0.132,-3.48 0.197,-6.089 0.197,-7.829c0,-5.324 2.32,-7.986 6.959,-7.986c5.166,0 7.775,4.375 7.828,13.126c10.121,-9.752 21.35,-14.628 33.685,-14.628c4.27,0 7.459,1.607 9.568,4.823c2.109,3.216 3.163,8.065 3.163,14.549c0,2.742 -0.027,4.587 -0.079,5.536Z" style="fill:#fff;fill-rule:nonzero;"/></svg>