<?xml version="1.0" encoding="UTF-8" standalone="no"?><!DOCTYPE svg PUBLIC "-//W3C//DTD SVG 1.1//EN" "http://www.w3.org/Graphics/SVG/1.1/DTD/svg11.dtd"><svg width="100%" height="100%" viewBox="0 0 1753 364" version="1.1" xmlns="http://www.w3.org/2000/svg" xmlns:xlink="http://www.w3.org/1999/xlink" xml:space="preserve" xmlns:serif="http://www.serif.com/" style="fill-rule:evenodd;clip-rule:evenodd;stroke-linejoin:round;stroke-miterlimit:2;"><g transform="matrix(5.55556,0,0,5.55556,-816.198,-654.674)"><g transform="matrix(72,0,0,72,144.144,171.229)"><path d="M0.169,0l-0.131,0l0.089,-0.723l0.13,0l-0.088,0.723Z" style="fill:#fff;fill-rule:nonzero;"/></g><g transform="matrix(72,0,0,72,163.973,171.229)"><path d="M0.183,-0.407c0.025,-0.038 0.054,-0.067 0.086,-0.086c0.032,-0.019 0.064,-0.028 0.098,-0.028c0.021,0 0.04,0.004 0.057,0.013c0.018,0.009 0.032,0.021 0.043,0.038c0.011,0.016 0.018,0.037 0.023,0.061c0.004,0.024 0.005,0.052 0.001,0.083l-0.039,0.326l-0.124,0l0.039,-0.327c0.004,-0.033 0.003,-0.057 -0.005,-0.071c-0.008,-0.015 -0.022,-0.022 -0.042,-0.022c-0.014,0 -0.028,0.004 -0.042,0.012c-0.014,0.008 -0.028,0.019 -0.042,0.033c-0.013,0.015 -0.025,0.032 -0.036,0.052c-0.011,0.02 -0.021,0.043 -0.028,0.068l-0.028,0.255l-0.124,0l0.062,-0.514l0.062,0.001c0.013,0 0.024,0.003 0.031,0.009c0.007,0.006 0.01,0.017 0.01,0.031l-0.003,0.066Z" style="fill:#fff;fill-rule:nonzero;"/></g><g transform="matrix(72,0,0,72,202.919,171.229)"><path d="M0.362,-0.417c-0.004,0.006 -0.007,0.01 -0.011,0.012c-0.003,0.002 -0.007,0.003 -0.012,0.003c-0.006,0 -0.012,-0.002 -0.018,-0.005c-0.006,-0.003 -0.013,-0.007 -0.021,-0.011c-0.008,-0.004 -0.017,-0.008 -0.027,-0.012c-0.01,-0.003 -0.022,-0.005 -0.036,-0.005c-0.027,0.001 -0.047,0.006 -0.061,0.018c-0.014,0.012 -0.021,0.027 -0.021,0.044c0,0.014 0.005,0.025 0.015,0.033c0.01,0.009 0.022,0.016 0.037,0.022c0.015,0.007 0.031,0.013 0.048,0.02c0.017,0.006 0.034,0.014 0.049,0.024c0.015,0.01 0.027,0.023 0.037,0.038c0.01,0.016 0.015,0.036 0.015,0.06c0,0.025 -0.005,0.048 -0.015,0.07c-0.01,0.023 -0.024,0.042 -0.042,0.059c-0.019,0.017 -0.041,0.03 -0.067,0.04c-0.026,0.01 -0.055,0.015 -0.087,0.015c-0.016,0 -0.032,-0.002 -0.047,-0.005c-0.015,-0.003 -0.03,-0.007 -0.043,-0.013c-0.013,-0.006 -0.025,-0.012 -0.036,-0.02c-0.011,-0.008 -0.02,-0.016 -0.028,-0.025l0.031,-0.047c0.003,-0.006 0.008,-0.01 0.013,-0.013c0.005,-0.003 0.011,-0.005 0.018,-0.005c0.007,0 0.013,0.003 0.019,0.007c0.006,0.004 0.012,0.009 0.02,0.014c0.007,0.005 0.016,0.01 0.027,0.014c0.011,0.005 0.025,0.007 0.042,0.007c0.014,0 0.026,-0.002 0.036,-0.006c0.011,-0.003 0.02,-0.008 0.027,-0.015c0.007,-0.006 0.013,-0.013 0.017,-0.022c0.003,-0.008 0.005,-0.017 0.005,-0.026c0,-0.011 -0.003,-0.021 -0.008,-0.028c-0.006,-0.008 -0.014,-0.014 -0.023,-0.02c-0.01,-0.005 -0.02,-0.01 -0.032,-0.014c-0.012,-0.004 -0.025,-0.009 -0.037,-0.014c-0.013,-0.004 -0.025,-0.01 -0.037,-0.016c-0.012,-0.006 -0.022,-0.013 -0.032,-0.022c-0.009,-0.009 -0.017,-0.021 -0.022,-0.034c-0.006,-0.013 -0.009,-0.029 -0.009,-0.048c0,-0.023 0.004,-0.045 0.013,-0.066c0.009,-0.022 0.021,-0.041 0.038,-0.057c0.017,-0.017 0.037,-0.03 0.062,-0.04c0.024,-0.01 0.052,-0.015 0.084,-0.015c0.033,0 0.062,0.006 0.087,0.017c0.025,0.011 0.047,0.025 0.064,0.042l-0.032,0.045Z" style="fill:#fff;fill-rule:nonzero;"/></g><g transform="matrix(72,0,0,72,232.109,171.229)"><path d="M0.416,-0.091c-0.018,0.019 -0.034,0.034 -0.049,0.047c-0.016,0.013 -0.032,0.023 -0.048,0.031c-0.016,0.007 -0.032,0.013 -0.05,0.016c-0.017,0.003 -0.037,0.004 -0.058,0.004c-0.029,0 -0.056,-0.005 -0.079,-0.015c-0.024,-0.01 -0.044,-0.024 -0.06,-0.043c-0.016,-0.019 -0.029,-0.041 -0.038,-0.067c-0.008,-0.027 -0.013,-0.056 -0.013,-0.088c0,-0.028 0.003,-0.055 0.009,-0.081c0.006,-0.027 0.015,-0.052 0.026,-0.075c0.012,-0.023 0.025,-0.045 0.041,-0.064c0.016,-0.019 0.034,-0.036 0.054,-0.05c0.02,-0.014 0.042,-0.025 0.066,-0.033c0.023,-0.008 0.048,-0.011 0.074,-0.011c0.034,0 0.063,0.006 0.087,0.018c0.024,0.012 0.045,0.03 0.063,0.053l-0.039,0.047c-0.003,0.004 -0.006,0.006 -0.01,0.009c-0.004,0.002 -0.008,0.004 -0.013,0.004c-0.006,-0.001 -0.011,-0.002 -0.015,-0.006c-0.005,-0.003 -0.01,-0.007 -0.016,-0.011c-0.006,-0.004 -0.014,-0.008 -0.023,-0.011c-0.009,-0.004 -0.021,-0.005 -0.036,-0.005c-0.019,0 -0.037,0.005 -0.055,0.015c-0.017,0.01 -0.032,0.025 -0.046,0.044c-0.013,0.019 -0.023,0.042 -0.031,0.069c-0.008,0.026 -0.012,0.056 -0.012,0.088c0,0.038 0.008,0.067 0.025,0.087c0.017,0.021 0.039,0.031 0.068,0.031c0.013,0 0.024,-0.001 0.033,-0.004c0.01,-0.003 0.019,-0.006 0.026,-0.01c0.008,-0.004 0.014,-0.008 0.02,-0.012c0.006,-0.005 0.011,-0.009 0.016,-0.013c0.005,-0.004 0.01,-0.007 0.014,-0.009c0.005,-0.003 0.01,-0.004 0.015,-0.004c0.004,0 0.008,0.001 0.012,0.003c0.004,0.002 0.007,0.005 0.01,0.008l0.031,0.038Z" style="fill:#fff;fill-rule:nonzero;"/></g><g transform="matrix(72,0,0,72,264.755,171.229)"><path d="M0.183,-0.39c0.013,-0.025 0.026,-0.047 0.041,-0.065c0.015,-0.018 0.031,-0.033 0.047,-0.043c0.015,-0.01 0.032,-0.016 0.049,-0.018c0.017,-0.002 0.034,0.001 0.051,0.009l-0.023,0.117c-0.04,-0.016 -0.076,-0.012 -0.106,0.013c-0.031,0.025 -0.055,0.075 -0.073,0.15l-0.028,0.227l-0.121,0l0.062,-0.514l0.063,0.001c0.013,0 0.023,0.003 0.03,0.009c0.007,0.006 0.011,0.017 0.011,0.031l-0.004,0.083Z" style="fill:#fff;fill-rule:nonzero;"/></g><g transform="matrix(72,0,0,72,290.201,171.229)"><path d="M0.208,-0.513l-0.062,0.513l-0.121,0l0.061,-0.513l0.122,0Zm0.031,-0.149c0,0.01 -0.002,0.02 -0.006,0.03c-0.005,0.009 -0.011,0.017 -0.018,0.024c-0.007,0.007 -0.016,0.013 -0.025,0.017c-0.009,0.004 -0.019,0.006 -0.029,0.006c-0.01,0 -0.019,-0.002 -0.028,-0.006c-0.009,-0.004 -0.017,-0.01 -0.024,-0.017c-0.007,-0.007 -0.013,-0.015 -0.017,-0.024c-0.004,-0.01 -0.006,-0.02 -0.006,-0.03c0,-0.011 0.002,-0.021 0.006,-0.031c0.005,-0.01 0.01,-0.018 0.017,-0.025c0.007,-0.007 0.016,-0.013 0.025,-0.017c0.009,-0.004 0.018,-0.006 0.028,-0.006c0.01,0 0.02,0.002 0.029,0.006c0.009,0.004 0.018,0.01 0.025,0.017c0.007,0.007 0.013,0.015 0.017,0.025c0.004,0.009 0.006,0.02 0.006,0.031Z" style="fill:#fff;fill-rule:nonzero;"/></g><g transform="matrix(72,0,0,72,307.835,171.229)"><path d="M0.155,-0.12c0.011,0.012 0.024,0.021 0.039,0.026c0.015,0.005 0.029,0.008 0.043,0.008c0.022,-0.001 0.042,-0.007 0.06,-0.021c0.018,-0.014 0.033,-0.032 0.046,-0.054c0.013,-0.021 0.023,-0.046 0.03,-0.074c0.008,-0.027 0.011,-0.055 0.011,-0.083c0,-0.035 -0.006,-0.062 -0.018,-0.08c-0.012,-0.017 -0.028,-0.026 -0.049,-0.026c-0.014,0 -0.028,0.005 -0.041,0.014c-0.015,0.009 -0.028,0.022 -0.041,0.038c-0.013,0.016 -0.025,0.036 -0.036,0.058c-0.011,0.022 -0.021,0.045 -0.029,0.071l-0.015,0.123Zm0.027,-0.28c0.025,-0.037 0.053,-0.066 0.084,-0.088c0.031,-0.022 0.065,-0.033 0.099,-0.033c0.022,0 0.041,0.004 0.058,0.012c0.018,0.008 0.033,0.019 0.045,0.035c0.012,0.016 0.022,0.036 0.029,0.06c0.006,0.024 0.009,0.052 0.009,0.084c0,0.029 -0.003,0.058 -0.009,0.086c-0.006,0.028 -0.014,0.054 -0.025,0.079c-0.011,0.025 -0.024,0.048 -0.039,0.069c-0.015,0.021 -0.032,0.039 -0.051,0.055c-0.019,0.015 -0.039,0.027 -0.06,0.036c-0.021,0.008 -0.043,0.012 -0.066,0.013c-0.023,-0.001 -0.044,-0.005 -0.062,-0.013c-0.019,-0.008 -0.035,-0.02 -0.049,-0.034l-0.026,0.207l-0.12,0l0.083,-0.682l0.063,0.001c0.013,0 0.023,0.003 0.03,0.009c0.007,0.006 0.011,0.017 0.011,0.031l-0.004,0.073Z" style="fill:#fff;fill-rule:nonzero;"/></g><g transform="matrix(72,0,0,72,346.204,171.229)"><path d="M0.501,0l-0.118,0l0.051,-0.423l-0.213,0.001l-0.028,0.225l-0.006,0.051l-0.002,0.013c0.001,0.013 0.004,0.023 0.01,0.03c0.006,0.008 0.015,0.011 0.026,0.011c0.007,0 0.013,0 0.018,-0.002c0.005,-0.002 0.009,-0.004 0.013,-0.006c0.004,-0.002 0.007,-0.004 0.01,-0.006c0.003,-0.002 0.006,-0.003 0.009,-0.003c0.003,0 0.006,0.001 0.008,0.003c0.002,0.002 0.004,0.005 0.005,0.008l0.027,0.06c-0.018,0.015 -0.039,0.027 -0.061,0.034c-0.022,0.008 -0.044,0.012 -0.067,0.012c-0.036,0 -0.065,-0.01 -0.086,-0.03c-0.021,-0.019 -0.033,-0.047 -0.034,-0.083l0,-0.008c0,-0.003 0,-0.008 0.001,-0.014c0,-0.006 0.001,-0.014 0.002,-0.024c0.001,-0.01 0.003,-0.023 0.005,-0.04l0.028,-0.231l-0.046,0c-0.006,0 -0.011,-0.003 -0.015,-0.007c-0.004,-0.004 -0.006,-0.01 -0.005,-0.018l0.006,-0.048l0.076,-0.013l0.042,-0.141c0.002,-0.007 0.006,-0.012 0.01,-0.015c0.005,-0.004 0.011,-0.006 0.018,-0.006l0.066,0l-0.02,0.163l0.333,0l-0.063,0.507Zm0.105,-0.663c0,0.011 -0.002,0.021 -0.006,0.031c-0.005,0.009 -0.011,0.017 -0.018,0.024c-0.007,0.007 -0.015,0.013 -0.025,0.017c-0.009,0.004 -0.019,0.006 -0.029,0.006c-0.009,0 -0.019,-0.002 -0.028,-0.006c-0.009,-0.004 -0.017,-0.01 -0.024,-0.017c-0.007,-0.007 -0.013,-0.015 -0.017,-0.024c-0.004,-0.01 -0.006,-0.02 -0.006,-0.03c0,-0.011 0.002,-0.021 0.007,-0.031c0.004,-0.01 0.01,-0.018 0.017,-0.025c0.007,-0.007 0.015,-0.013 0.024,-0.017c0.009,-0.004 0.018,-0.006 0.028,-0.006c0.01,0 0.02,0.002 0.029,0.006c0.009,0.004 0.018,0.01 0.025,0.017c0.007,0.007 0.013,0.015 0.017,0.025c0.004,0.009 0.006,0.02 0.006,0.031Z" style="fill:#fff;fill-rule:nonzero;"/></g><g transform="matrix(72,0,0,72,389.116,171.229)"><path d="M0.231,-0.087c0.021,0 0.039,-0.006 0.056,-0.018c0.017,-0.012 0.031,-0.028 0.042,-0.048c0.012,-0.02 0.021,-0.043 0.027,-0.069c0.007,-0.026 0.01,-0.054 0.01,-0.083c0,-0.042 -0.007,-0.072 -0.021,-0.092c-0.014,-0.019 -0.035,-0.029 -0.064,-0.029c-0.021,0 -0.039,0.006 -0.056,0.018c-0.017,0.011 -0.031,0.027 -0.043,0.047c-0.012,0.02 -0.021,0.043 -0.027,0.069c-0.006,0.026 -0.01,0.054 -0.01,0.084c0,0.041 0.007,0.072 0.021,0.091c0.014,0.02 0.036,0.03 0.065,0.03Zm-0.012,0.095c-0.028,-0.001 -0.054,-0.005 -0.078,-0.015c-0.024,-0.009 -0.045,-0.023 -0.063,-0.041c-0.017,-0.019 -0.031,-0.041 -0.041,-0.068c-0.01,-0.027 -0.015,-0.057 -0.015,-0.091c0,-0.045 0.007,-0.086 0.021,-0.125c0.015,-0.038 0.034,-0.071 0.059,-0.099c0.024,-0.028 0.053,-0.05 0.085,-0.066c0.033,-0.016 0.068,-0.024 0.105,-0.024c0.028,0 0.055,0.005 0.079,0.014c0.024,0.01 0.045,0.024 0.062,0.042c0.018,0.018 0.032,0.041 0.041,0.068c0.011,0.026 0.016,0.057 0.016,0.091c-0.001,0.044 -0.008,0.085 -0.022,0.123c-0.014,0.038 -0.034,0.072 -0.058,0.1c-0.025,0.028 -0.053,0.05 -0.086,0.066c-0.033,0.016 -0.067,0.024 -0.104,0.025Z" style="fill:#fff;fill-rule:nonzero;"/></g><g transform="matrix(72,0,0,72,426.772,171.229)"><path d="M0.183,-0.407c0.025,-0.038 0.054,-0.067 0.086,-0.086c0.032,-0.019 0.064,-0.028 0.098,-0.028c0.021,0 0.04,0.004 0.057,0.013c0.018,0.009 0.032,0.021 0.043,0.038c0.011,0.016 0.018,0.037 0.023,0.061c0.004,0.024 0.005,0.052 0.001,0.083l-0.039,0.326l-0.124,0l0.039,-0.327c0.004,-0.033 0.003,-0.057 -0.005,-0.071c-0.008,-0.015 -0.022,-0.022 -0.042,-0.022c-0.014,0 -0.028,0.004 -0.042,0.012c-0.014,0.008 -0.028,0.019 -0.042,0.033c-0.013,0.015 -0.025,0.032 -0.036,0.052c-0.011,0.02 -0.021,0.043 -0.028,0.068l-0.028,0.255l-0.124,0l0.062,-0.514l0.062,0.001c0.013,0 0.024,0.003 0.031,0.009c0.007,0.006 0.01,0.017 0.01,0.031l-0.003,0.066Z" style="fill:#fff;fill-rule:nonzero;"/></g></g></svg>