<?xml version="1.0" encoding="UTF-8" standalone="no"?><!DOCTYPE svg PUBLIC "-//W3C//DTD SVG 1.1//EN" "http://www.w3.org/Graphics/SVG/1.1/DTD/svg11.dtd"><svg width="100%" height="100%" viewBox="0 0 2566 2318" version="1.1" xmlns="http://www.w3.org/2000/svg" xmlns:xlink="http://www.w3.org/1999/xlink" xml:space="preserve" xmlns:serif="http://www.serif.com/" style="fill-rule:evenodd;clip-rule:evenodd;stroke-miterlimit:10;"><g transform="matrix(5.55556,0,0,5.55556,-390.173,-1171.94)"><g transform="matrix(72,0,0,72,80.2808,264.387)"><path d="M0.095,-0.466c-0.009,-0.018 -0.013,-0.035 -0.013,-0.051c0,-0.056 0.045,-0.107 0.136,-0.154c0.091,-0.046 0.19,-0.07 0.299,-0.07c0.06,0 0.109,0.012 0.146,0.035c0.038,0.023 0.056,0.053 0.056,0.091c0,0.069 -0.049,0.134 -0.148,0.195c0.058,0.016 0.103,0.039 0.136,0.071c0.033,0.031 0.049,0.067 0.049,0.107c0,0.079 -0.043,0.146 -0.129,0.201c-0.085,0.056 -0.189,0.083 -0.311,0.083c-0.089,0 -0.134,-0.028 -0.134,-0.084c0,-0.013 0.005,-0.045 0.015,-0.094l0.069,-0.346c0.005,-0.028 0.008,-0.047 0.008,-0.059c0,-0.011 -0.004,-0.022 -0.012,-0.031c0.043,-0.017 0.073,-0.025 0.091,-0.025c0.02,0 0.03,0.012 0.03,0.035c0,0.006 -0.006,0.035 -0.016,0.086l-0.064,0.321c-0.007,0.037 -0.011,0.062 -0.011,0.073c0,0.041 0.039,0.061 0.117,0.061c0.064,0 0.119,-0.018 0.165,-0.055c0.046,-0.037 0.069,-0.081 0.069,-0.133c0,-0.041 -0.013,-0.072 -0.039,-0.095c-0.025,-0.023 -0.067,-0.041 -0.126,-0.053c-0.022,0.009 -0.045,0.013 -0.07,0.013c-0.008,0 -0.019,-0.002 -0.032,-0.005c0.01,-0.034 0.022,-0.058 0.036,-0.07c0.014,-0.012 0.037,-0.018 0.068,-0.018c0.009,0 0.02,0 0.033,0.001c0.07,-0.05 0.104,-0.101 0.104,-0.15c0,-0.059 -0.045,-0.089 -0.135,-0.089c-0.145,0 -0.274,0.07 -0.387,0.209Z" style="fill:#fff;fill-rule:nonzero;"/></g><g transform="matrix(72,0,0,72,134.565,264.387)"><path d="M0.708,-0.4c-0.073,0.129 -0.147,0.23 -0.223,0.303c-0.075,0.073 -0.142,0.109 -0.202,0.109c-0.037,0 -0.066,-0.012 -0.088,-0.035c-0.023,-0.024 -0.034,-0.055 -0.034,-0.094c0,-0.015 0.003,-0.038 0.01,-0.07l0.011,-0.054c0.016,-0.077 0.024,-0.132 0.024,-0.163c0,-0.018 -0.006,-0.034 -0.017,-0.045c0.042,-0.01 0.069,-0.015 0.08,-0.015c0.024,0 0.036,0.017 0.036,0.051c0,0.025 -0.005,0.061 -0.014,0.108l-0.02,0.095c-0.009,0.046 -0.014,0.075 -0.014,0.089c0,0.04 0.017,0.06 0.052,0.06c0.04,0 0.094,-0.034 0.162,-0.102c0.068,-0.069 0.133,-0.155 0.197,-0.26l0.04,0.023Zm-0.434,-0.245l0.007,0c0.022,-0.001 0.053,-0.012 0.094,-0.033c0.041,-0.021 0.073,-0.042 0.096,-0.064c-0.015,0.045 -0.04,0.082 -0.076,0.113c-0.056,0.046 -0.093,0.069 -0.113,0.069c-0.013,0 -0.019,-0.008 -0.019,-0.024c0,-0.023 0.003,-0.043 0.011,-0.061Z" style="fill:#fff;fill-rule:nonzero;"/></g><g transform="matrix(72,0,0,72,166.49,264.387)"><path d="M0.228,-0.203c0,0.095 0.04,0.142 0.121,0.142c0.07,0 0.147,-0.033 0.232,-0.099c0.084,-0.067 0.16,-0.155 0.228,-0.264l0.041,0.023c-0.064,0.119 -0.147,0.218 -0.249,0.296c-0.102,0.078 -0.198,0.117 -0.29,0.117c-0.059,0 -0.105,-0.019 -0.139,-0.056c-0.034,-0.038 -0.051,-0.09 -0.051,-0.155c0,-0.095 0.031,-0.175 0.093,-0.242c0.061,-0.067 0.136,-0.101 0.223,-0.101c0.042,0 0.075,0.011 0.1,0.032c0.026,0.021 0.038,0.049 0.038,0.085c0,0.058 -0.035,0.109 -0.105,0.154c-0.07,0.045 -0.151,0.068 -0.242,0.068Zm0.004,-0.047c0.068,-0.004 0.126,-0.023 0.175,-0.059c0.049,-0.035 0.073,-0.076 0.073,-0.122c0,-0.042 -0.019,-0.063 -0.056,-0.063c-0.044,0 -0.085,0.024 -0.122,0.071c-0.038,0.048 -0.061,0.105 -0.07,0.173Z" style="fill:#fff;fill-rule:nonzero;"/></g><g transform="matrix(72,0,0,72,208.61,264.387)"><path d="M0.292,-0.175c0.115,-0.245 0.219,-0.367 0.311,-0.367c0.072,0 0.108,0.072 0.108,0.215l0.001,0.059c0,0.068 0.003,0.116 0.01,0.142c0.007,0.026 0.02,0.039 0.039,0.039c0.028,0 0.06,-0.022 0.095,-0.067c0.036,-0.044 0.094,-0.134 0.174,-0.269l0.041,0.024c-0.071,0.135 -0.135,0.235 -0.192,0.301c-0.057,0.065 -0.108,0.098 -0.152,0.098c-0.042,0 -0.071,-0.02 -0.088,-0.06c-0.016,-0.04 -0.025,-0.109 -0.025,-0.208l0,-0.042c0,-0.053 -0.004,-0.091 -0.01,-0.113c-0.007,-0.021 -0.019,-0.032 -0.036,-0.032c-0.043,0 -0.112,0.086 -0.208,0.257c-0.023,0.042 -0.038,0.069 -0.045,0.081c-0.025,0.044 -0.038,0.075 -0.038,0.095c0,0.008 0.002,0.015 0.007,0.022c-0.019,0.008 -0.035,0.012 -0.048,0.012c-0.033,0 -0.049,-0.018 -0.049,-0.054c0,-0.011 0.004,-0.058 0.012,-0.141l0.011,-0.106c0.005,-0.045 0.007,-0.08 0.007,-0.105c0,-0.034 -0.008,-0.061 -0.023,-0.081c0.007,-0.002 0.018,-0.006 0.034,-0.012c0.02,-0.007 0.036,-0.011 0.048,-0.011c0.026,0 0.038,0.019 0.038,0.056c0,0.02 -0.002,0.053 -0.007,0.101c-0.001,0.01 -0.002,0.02 -0.003,0.029l-0.012,0.137Z" style="fill:#fff;fill-rule:nonzero;"/></g><g transform="matrix(72,0,0,72,266.691,264.387)"><path d="M0.27,0.013c0.007,-0.028 0.01,-0.053 0.01,-0.074c0,-0.08 -0.017,-0.169 -0.051,-0.267c-0.034,-0.097 -0.074,-0.17 -0.12,-0.22c0.028,-0.014 0.054,-0.021 0.076,-0.021c0.036,0 0.072,0.047 0.109,0.141c0.036,0.093 0.063,0.207 0.079,0.34c0.057,-0.072 0.104,-0.147 0.141,-0.224c0.037,-0.076 0.058,-0.143 0.063,-0.198c0.048,0.019 0.073,0.041 0.073,0.066c0,0.022 -0.023,0.072 -0.07,0.151c-0.047,0.078 -0.098,0.152 -0.152,0.221c-0.027,0.034 -0.049,0.056 -0.068,0.066c-0.018,0.009 -0.048,0.016 -0.09,0.019Z" style="fill:#fff;fill-rule:nonzero;"/></g><g transform="matrix(72,0,0,72,307.334,264.387)"><path d="M0.228,-0.203c0,0.095 0.04,0.142 0.121,0.142c0.07,0 0.147,-0.033 0.232,-0.099c0.084,-0.067 0.16,-0.155 0.228,-0.264l0.041,0.023c-0.064,0.119 -0.147,0.218 -0.249,0.296c-0.102,0.078 -0.198,0.117 -0.29,0.117c-0.059,0 -0.105,-0.019 -0.139,-0.056c-0.034,-0.038 -0.051,-0.09 -0.051,-0.155c0,-0.095 0.031,-0.175 0.093,-0.242c0.061,-0.067 0.136,-0.101 0.223,-0.101c0.042,0 0.075,0.011 0.1,0.032c0.026,0.021 0.038,0.049 0.038,0.085c0,0.058 -0.035,0.109 -0.105,0.154c-0.07,0.045 -0.151,0.068 -0.242,0.068Zm0.004,-0.047c0.068,-0.004 0.126,-0.023 0.175,-0.059c0.049,-0.035 0.073,-0.076 0.073,-0.122c0,-0.042 -0.019,-0.063 -0.056,-0.063c-0.044,0 -0.085,0.024 -0.122,0.071c-0.038,0.048 -0.061,0.105 -0.07,0.173Z" style="fill:#fff;fill-rule:nonzero;"/></g><g transform="matrix(72,0,0,72,349.454,264.387)"><path d="M0.292,-0.175c0.115,-0.245 0.219,-0.367 0.311,-0.367c0.072,0 0.108,0.072 0.108,0.215l0.001,0.059c0,0.068 0.003,0.116 0.01,0.142c0.007,0.026 0.02,0.039 0.039,0.039c0.028,0 0.06,-0.022 0.095,-0.067c0.036,-0.044 0.094,-0.134 0.174,-0.269l0.041,0.024c-0.071,0.135 -0.135,0.235 -0.192,0.301c-0.057,0.065 -0.108,0.098 -0.152,0.098c-0.042,0 -0.071,-0.02 -0.088,-0.06c-0.016,-0.04 -0.025,-0.109 -0.025,-0.208l0,-0.042c0,-0.053 -0.004,-0.091 -0.01,-0.113c-0.007,-0.021 -0.019,-0.032 -0.036,-0.032c-0.043,0 -0.112,0.086 -0.208,0.257c-0.023,0.042 -0.038,0.069 -0.045,0.081c-0.025,0.044 -0.038,0.075 -0.038,0.095c0,0.008 0.002,0.015 0.007,0.022c-0.019,0.008 -0.035,0.012 -0.048,0.012c-0.033,0 -0.049,-0.018 -0.049,-0.054c0,-0.011 0.004,-0.058 0.012,-0.141l0.011,-0.106c0.005,-0.045 0.007,-0.08 0.007,-0.105c0,-0.034 -0.008,-0.061 -0.023,-0.081c0.007,-0.002 0.018,-0.006 0.034,-0.012c0.02,-0.007 0.036,-0.011 0.048,-0.011c0.026,0 0.038,0.019 0.038,0.056c0,0.02 -0.002,0.053 -0.007,0.101c-0.001,0.01 -0.002,0.02 -0.003,0.029l-0.012,0.137Z" style="fill:#fff;fill-rule:nonzero;"/></g><g transform="matrix(72,0,0,72,407.535,264.387)"><path d="M0.572,-0.301c-0.045,0.093 -0.095,0.168 -0.151,0.226c-0.055,0.058 -0.105,0.087 -0.149,0.087c-0.035,0 -0.064,-0.012 -0.086,-0.037c-0.022,-0.025 -0.033,-0.058 -0.033,-0.098c0,-0.051 0.017,-0.146 0.052,-0.283c0.009,-0.037 0.014,-0.06 0.014,-0.07c0,-0.01 -0.003,-0.021 -0.01,-0.032l0.068,0c0.029,0 0.043,0.011 0.043,0.033c0,0.014 -0.009,0.054 -0.028,0.121c-0.006,0.019 -0.01,0.033 -0.011,0.041l-0.008,0.029c-0.014,0.06 -0.021,0.105 -0.021,0.136c0,0.048 0.017,0.072 0.05,0.072c0.054,0 0.123,-0.067 0.207,-0.201c0.068,-0.11 0.102,-0.188 0.102,-0.234c0,-0.007 -0.002,-0.013 -0.006,-0.02c0.027,-0.007 0.05,-0.011 0.068,-0.011c0.029,0 0.043,0.009 0.043,0.026c0,0.005 -0.001,0.011 -0.004,0.019c-0.001,0.005 -0.004,0.017 -0.009,0.035c-0.001,0.004 -0.004,0.017 -0.01,0.04c-0.004,0.016 -0.007,0.028 -0.009,0.038l-0.005,0.023c-0.011,0.054 -0.016,0.104 -0.016,0.151c0,0.071 0.017,0.107 0.052,0.107c0.076,0 0.173,-0.107 0.29,-0.322l0.041,0.025c-0.134,0.257 -0.256,0.385 -0.366,0.385c-0.075,0 -0.112,-0.065 -0.112,-0.194c0,-0.024 0.001,-0.055 0.004,-0.092Z" style="fill:#fff;fill-rule:nonzero;"/></g><g transform="matrix(72,0,0,72,463.753,264.387)"><path d="M0.228,-0.203c0,0.095 0.04,0.142 0.121,0.142c0.07,0 0.147,-0.033 0.232,-0.099c0.084,-0.067 0.16,-0.155 0.228,-0.264l0.041,0.023c-0.064,0.119 -0.147,0.218 -0.249,0.296c-0.102,0.078 -0.198,0.117 -0.29,0.117c-0.059,0 -0.105,-0.019 -0.139,-0.056c-0.034,-0.038 -0.051,-0.09 -0.051,-0.155c0,-0.095 0.031,-0.175 0.093,-0.242c0.061,-0.067 0.136,-0.101 0.223,-0.101c0.042,0 0.075,0.011 0.1,0.032c0.026,0.021 0.038,0.049 0.038,0.085c0,0.058 -0.035,0.109 -0.105,0.154c-0.07,0.045 -0.151,0.068 -0.242,0.068Zm0.004,-0.047c0.068,-0.004 0.126,-0.023 0.175,-0.059c0.049,-0.035 0.073,-0.076 0.073,-0.122c0,-0.042 -0.019,-0.063 -0.056,-0.063c-0.044,0 -0.085,0.024 -0.122,0.071c-0.038,0.048 -0.061,0.105 -0.07,0.173Z" style="fill:#fff;fill-rule:nonzero;"/></g><g transform="matrix(24,0,0,24,290.053,300.917)"><path d="M0.373,-0.442c-0.014,-0.002 -0.026,-0.003 -0.039,-0.003c-0.03,0.001 -0.057,0.007 -0.084,0.021c-0.025,0.014 -0.048,0.033 -0.067,0.056c-0.019,0.023 -0.035,0.05 -0.046,0.081c-0.011,0.031 -0.017,0.063 -0.017,0.097c0,0.039 0.007,0.068 0.02,0.087c0.012,0.019 0.031,0.029 0.054,0.029c0.016,0 0.032,-0.005 0.047,-0.015c0.015,-0.01 0.029,-0.024 0.043,-0.042c0.013,-0.018 0.026,-0.039 0.037,-0.064c0.012,-0.024 0.022,-0.05 0.031,-0.079l0.021,-0.168Zm-0.034,0.315c-0.012,0.02 -0.025,0.039 -0.038,0.055c-0.014,0.017 -0.028,0.031 -0.043,0.042c-0.015,0.012 -0.031,0.021 -0.048,0.027c-0.017,0.007 -0.035,0.01 -0.053,0.01c-0.02,0 -0.038,-0.004 -0.054,-0.012c-0.017,-0.008 -0.031,-0.019 -0.043,-0.034c-0.012,-0.015 -0.021,-0.034 -0.027,-0.057c-0.007,-0.022 -0.01,-0.048 -0.01,-0.077c0,-0.03 0.004,-0.059 0.011,-0.088c0.008,-0.029 0.018,-0.056 0.032,-0.081c0.014,-0.025 0.031,-0.049 0.051,-0.07c0.019,-0.021 0.041,-0.04 0.065,-0.055c0.024,-0.015 0.05,-0.027 0.078,-0.036c0.028,-0.008 0.057,-0.013 0.087,-0.013c0.022,0 0.044,0.002 0.065,0.006c0.021,0.003 0.042,0.009 0.062,0.018l-0.061,0.492l-0.051,0c-0.012,0 -0.021,-0.003 -0.025,-0.01c-0.004,-0.006 -0.007,-0.014 -0.007,-0.024l0.008,-0.093Z" style="fill:#fff;fill-rule:nonzero;"/></g><g transform="matrix(24,0,0,24,302.365,300.917)"><path d="M0.493,-0.508l-0.062,0.508l-0.048,0c-0.024,0 -0.036,-0.012 -0.036,-0.035l0.007,-0.083c-0.027,0.041 -0.056,0.073 -0.089,0.094c-0.033,0.021 -0.067,0.031 -0.102,0.031c-0.021,0 -0.04,-0.004 -0.056,-0.013c-0.017,-0.008 -0.03,-0.021 -0.041,-0.037c-0.01,-0.016 -0.017,-0.036 -0.021,-0.06c-0.004,-0.024 -0.004,-0.051 0,-0.082l0.039,-0.323l0.097,0l-0.039,0.323c-0.004,0.038 -0.002,0.066 0.007,0.084c0.009,0.018 0.026,0.027 0.051,0.027c0.015,0 0.03,-0.004 0.046,-0.012c0.016,-0.008 0.031,-0.02 0.045,-0.035c0.015,-0.015 0.029,-0.033 0.041,-0.054c0.013,-0.022 0.024,-0.046 0.033,-0.072l0.031,-0.261l0.097,0Z" style="fill:#fff;fill-rule:nonzero;"/></g></g><path d="M1793.33,1516.59c-3.112,-4.083 -6.466,-6.935 -10.063,-8.556c-3.597,-1.62 -7.632,-2.43 -12.104,-2.43c-8.685,0 -15.41,3.127 -20.174,9.382c-4.764,6.254 -7.146,15.377 -7.146,27.368c0,6.287 0.535,11.65 1.605,16.09c1.069,4.44 2.625,8.07 4.666,10.889c2.042,2.819 4.553,4.893 7.535,6.222c2.981,1.329 6.352,1.993 10.111,1.993c5.509,0 10.273,-1.231 14.292,-3.694c4.018,-2.463 7.778,-5.931 11.278,-10.403l0,-46.861Zm19.055,-68.639l0,143.5l-11.472,0c-2.658,0 -4.31,-1.264 -4.958,-3.792l-1.653,-11.375c-4.213,4.991 -8.993,8.993 -14.341,12.007c-5.347,3.014 -11.52,4.521 -18.52,4.521c-5.639,0 -10.743,-1.102 -15.313,-3.305c-4.569,-2.204 -8.474,-5.429 -11.715,-9.674c-3.241,-4.245 -5.736,-9.512 -7.486,-15.799c-1.75,-6.287 -2.625,-13.514 -2.625,-21.68c0,-7.324 0.972,-14.13 2.916,-20.417c1.945,-6.287 4.764,-11.731 8.459,-16.333c3.694,-4.602 8.166,-8.215 13.416,-10.84c5.25,-2.625 11.181,-3.938 17.792,-3.938c5.963,0 11.035,0.972 15.215,2.917c4.181,1.944 7.924,4.699 11.23,8.264l0,-54.056l19.055,0Z" style="fill:#fff;fill-rule:nonzero;"/><path d="M1880.97,1491.12c7.26,0 13.822,1.183 19.688,3.548c5.866,2.366 10.856,5.769 14.972,10.209c4.116,4.439 7.276,9.787 9.479,16.041c2.204,6.255 3.306,13.271 3.306,21.049c0,7.778 -1.102,14.81 -3.306,21.097c-2.203,6.287 -5.363,11.634 -9.479,16.042c-4.116,4.407 -9.106,7.794 -14.972,10.16c-5.866,2.365 -12.428,3.548 -19.688,3.548c-7.324,0 -13.919,-1.183 -19.784,-3.548c-5.866,-2.366 -10.873,-5.753 -15.021,-10.16c-4.148,-4.408 -7.34,-9.755 -9.577,-16.042c-2.236,-6.287 -3.354,-13.319 -3.354,-21.097c0,-7.778 1.118,-14.794 3.354,-21.049c2.237,-6.254 5.429,-11.602 9.577,-16.041c4.148,-4.44 9.155,-7.843 15.021,-10.209c5.865,-2.365 12.46,-3.548 19.784,-3.548Zm0,86.916c9.334,0 16.301,-3.143 20.903,-9.43c4.602,-6.287 6.903,-15.134 6.903,-26.542c0,-11.407 -2.301,-20.271 -6.903,-26.59c-4.602,-6.32 -11.569,-9.479 -20.903,-9.479c-9.463,0 -16.511,3.159 -21.145,9.479c-4.635,6.319 -6.952,15.183 -6.952,26.59c0,11.408 2.317,20.255 6.952,26.542c4.634,6.287 11.682,9.43 21.145,9.43Z" style="fill:#fff;fill-rule:nonzero;"/><path d="M1967.26,1506.39c2.139,-2.269 4.375,-4.343 6.708,-6.223c2.334,-1.879 4.813,-3.483 7.438,-4.812c2.625,-1.329 5.444,-2.366 8.458,-3.111c3.014,-0.746 6.239,-1.118 9.674,-1.118c5.444,0 10.224,0.907 14.34,2.722c4.116,1.815 7.567,4.359 10.354,7.632c2.787,3.273 4.894,7.21 6.32,11.812c1.426,4.602 2.139,9.69 2.139,15.264l0,62.903l-19.056,0l0,-62.903c0,-7.065 -1.62,-12.558 -4.861,-16.479c-3.241,-3.921 -8.199,-5.882 -14.875,-5.882c-4.861,0 -9.414,1.151 -13.66,3.452c-4.245,2.3 -8.183,5.428 -11.812,9.381l0,72.431l-18.959,0l0,-98.778l11.375,0c2.658,0 4.311,1.264 4.959,3.792l1.458,9.917Z" style="fill:#fff;fill-rule:nonzero;"/><path d="M2076,1506.39c2.139,-2.269 4.375,-4.343 6.708,-6.223c2.334,-1.879 4.813,-3.483 7.438,-4.812c2.625,-1.329 5.444,-2.366 8.458,-3.111c3.014,-0.746 6.239,-1.118 9.674,-1.118c5.444,0 10.224,0.907 14.34,2.722c4.116,1.815 7.567,4.359 10.354,7.632c2.787,3.273 4.894,7.21 6.32,11.812c1.426,4.602 2.139,9.69 2.139,15.264l0,62.903l-19.056,0l0,-62.903c0,-7.065 -1.62,-12.558 -4.861,-16.479c-3.241,-3.921 -8.199,-5.882 -14.875,-5.882c-4.861,0 -9.414,1.151 -13.66,3.452c-4.245,2.3 -8.183,5.428 -11.812,9.381l0,72.431l-18.959,0l0,-98.778l11.375,0c2.658,0 4.311,1.264 4.959,3.792l1.458,9.917Z" style="fill:#fff;fill-rule:nonzero;"/><path d="M2232.38,1531.08c0,-3.759 -0.535,-7.227 -1.604,-10.403c-1.07,-3.176 -2.641,-5.93 -4.715,-8.264c-2.074,-2.333 -4.602,-4.148 -7.584,-5.444c-2.981,-1.296 -6.416,-1.945 -10.305,-1.945c-7.972,0 -14.243,2.301 -18.813,6.903c-4.569,4.602 -7.47,10.986 -8.701,19.153l51.722,0Zm15.653,46.278c-2.333,2.722 -5.023,5.072 -8.07,7.048c-3.046,1.977 -6.287,3.581 -9.722,4.813c-3.435,1.231 -6.984,2.139 -10.646,2.722c-3.662,0.583 -7.275,0.875 -10.84,0.875c-6.805,0 -13.109,-1.15 -18.91,-3.451c-5.801,-2.301 -10.824,-5.672 -15.069,-10.111c-4.245,-4.44 -7.551,-9.949 -9.917,-16.528c-2.365,-6.579 -3.548,-14.146 -3.548,-22.702c0,-6.87 1.069,-13.27 3.208,-19.201c2.139,-5.93 5.201,-11.099 9.187,-15.507c3.987,-4.407 8.864,-7.875 14.632,-10.403c5.769,-2.527 12.25,-3.791 19.445,-3.791c6.028,0 11.586,0.988 16.673,2.965c5.088,1.977 9.48,4.845 13.174,8.604c3.695,3.759 6.595,8.394 8.701,13.903c2.107,5.509 3.16,11.796 3.16,18.861c0,2.917 -0.324,4.877 -0.972,5.882c-0.648,1.005 -1.847,1.507 -3.597,1.507l-64.75,0c0.194,5.898 1.037,11.035 2.528,15.41c1.49,4.375 3.548,8.02 6.173,10.937c2.625,2.917 5.752,5.088 9.382,6.514c3.63,1.426 7.681,2.139 12.153,2.139c4.213,0 7.859,-0.486 10.937,-1.458c3.079,-0.973 5.736,-2.026 7.973,-3.16c2.236,-1.134 4.115,-2.188 5.638,-3.16c1.524,-0.972 2.869,-1.458 4.035,-1.458c1.556,0 2.755,0.583 3.597,1.75l5.445,7Z" style="fill:#fff;fill-rule:nonzero;"/><g transform="matrix(5.55556,0,0,5.55556,-390.173,-1171.94)"><g transform="matrix(72,0,0,72,151.736,358.221)"><path d="M0.498,-0.647l-0.11,0.551c-0.006,0.03 -0.01,0.05 -0.01,0.06c0,0.009 0.003,0.019 0.007,0.029c-0.034,0.017 -0.064,0.025 -0.091,0.025c-0.016,0 -0.025,-0.007 -0.025,-0.02c0,-0.007 0.003,-0.027 0.01,-0.061l0.116,-0.584l-0.068,0c-0.077,0 -0.144,0.007 -0.2,0.022c0.011,-0.044 0.026,-0.071 0.044,-0.082c0.018,-0.01 0.058,-0.016 0.12,-0.016l0.33,0c0.089,0 0.148,-0.032 0.176,-0.096c0.012,0.019 0.017,0.035 0.017,0.047c0,0.042 -0.026,0.076 -0.078,0.102c-0.032,0.015 -0.091,0.023 -0.179,0.023l-0.059,0Z" style="fill:#fff;fill-rule:nonzero;"/></g><g transform="matrix(72,0,0,72,199.504,358.221)"><path d="M0.228,-0.203c0,0.095 0.04,0.142 0.121,0.142c0.07,0 0.147,-0.033 0.232,-0.099c0.084,-0.067 0.16,-0.155 0.228,-0.264l0.041,0.023c-0.064,0.119 -0.147,0.218 -0.249,0.296c-0.102,0.078 -0.198,0.117 -0.29,0.117c-0.059,0 -0.105,-0.019 -0.139,-0.056c-0.034,-0.038 -0.051,-0.09 -0.051,-0.155c0,-0.095 0.031,-0.175 0.093,-0.242c0.061,-0.067 0.136,-0.101 0.223,-0.101c0.042,0 0.075,0.011 0.1,0.032c0.026,0.021 0.038,0.049 0.038,0.085c0,0.058 -0.035,0.109 -0.105,0.154c-0.07,0.045 -0.151,0.068 -0.242,0.068Zm0.004,-0.047c0.068,-0.004 0.126,-0.023 0.175,-0.059c0.049,-0.035 0.073,-0.076 0.073,-0.122c0,-0.042 -0.019,-0.063 -0.056,-0.063c-0.044,0 -0.085,0.024 -0.122,0.071c-0.038,0.048 -0.061,0.105 -0.07,0.173Z" style="fill:#fff;fill-rule:nonzero;"/></g><g transform="matrix(72,0,0,72,241.612,358.221)"><path d="M0.292,-0.172c0.117,-0.247 0.221,-0.37 0.311,-0.37c0.039,0 0.059,0.028 0.059,0.085c0,0.025 -0.009,0.08 -0.026,0.165l-0.029,0.148c0.057,-0.12 0.116,-0.216 0.178,-0.289c0.062,-0.073 0.115,-0.109 0.16,-0.109c0.05,0 0.075,0.029 0.075,0.087c0,0.021 -0.008,0.068 -0.022,0.143l-0.016,0.076c-0.009,0.046 -0.013,0.08 -0.013,0.102c0,0.039 0.014,0.058 0.041,0.058c0.063,0 0.159,-0.116 0.288,-0.347l0.041,0.023c-0.141,0.275 -0.264,0.412 -0.37,0.412c-0.067,0 -0.101,-0.044 -0.101,-0.132c0,-0.029 0.007,-0.076 0.02,-0.141l0.013,-0.067c0.009,-0.046 0.014,-0.074 0.014,-0.085c0,-0.014 -0.007,-0.021 -0.021,-0.021c-0.036,0 -0.099,0.07 -0.189,0.209c-0.083,0.128 -0.124,0.2 -0.124,0.219c0,0.002 0.001,0.005 0.002,0.01c-0.005,0.001 -0.013,0.003 -0.024,0.006c-0.005,0.002 -0.012,0.003 -0.022,0.003c-0.03,0 -0.045,-0.015 -0.045,-0.044c0,-0.008 0.005,-0.035 0.014,-0.079c0.004,-0.016 0.008,-0.033 0.011,-0.051l0.021,-0.104c0.015,-0.074 0.022,-0.119 0.022,-0.134c0,-0.022 -0.008,-0.033 -0.024,-0.033c-0.035,0 -0.087,0.063 -0.155,0.189c-0.068,0.125 -0.102,0.199 -0.102,0.223c0,0.007 0.002,0.014 0.008,0.02c-0.018,0.008 -0.035,0.012 -0.05,0.012c-0.034,0 -0.05,-0.018 -0.05,-0.054c0,-0.005 0.004,-0.052 0.014,-0.143l0.011,-0.104c0.004,-0.036 0.006,-0.07 0.006,-0.101c0,-0.039 -0.008,-0.067 -0.024,-0.086c0.038,-0.013 0.065,-0.02 0.08,-0.02c0.029,0 0.043,0.017 0.043,0.051c0,0.012 -0.004,0.056 -0.011,0.134l-0.014,0.139Z" style="fill:#fff;fill-rule:nonzero;"/></g><g transform="matrix(72,0,0,72,318.982,358.221)"><path d="M0.223,-0.03l-0.036,0.18c-0.008,0.041 -0.012,0.077 -0.012,0.107c0,0.019 0.004,0.036 0.013,0.052c-0.033,0.011 -0.058,0.016 -0.076,0.016c-0.027,0 -0.04,-0.015 -0.04,-0.046c0,-0.023 0.005,-0.062 0.016,-0.116l0.142,-0.717c-0.028,0.006 -0.052,0.009 -0.071,0.009c-0.028,0 -0.049,-0.007 -0.063,-0.021c-0.013,-0.013 -0.024,-0.038 -0.032,-0.075c0.024,0.016 0.06,0.024 0.108,0.024c0.061,0 0.119,-0.011 0.174,-0.033l-0.037,0.188c0.055,-0.053 0.112,-0.08 0.171,-0.08c0.052,0 0.095,0.02 0.13,0.059c0.034,0.039 0.052,0.088 0.052,0.147c0,0.091 -0.032,0.17 -0.096,0.236c-0.063,0.067 -0.138,0.1 -0.226,0.1c-0.047,0 -0.086,-0.01 -0.117,-0.03Zm0.015,-0.076c0.033,0.038 0.073,0.058 0.121,0.058c0.057,0 0.106,-0.024 0.146,-0.073c0.04,-0.048 0.06,-0.106 0.06,-0.175c0,-0.05 -0.011,-0.091 -0.034,-0.121c-0.023,-0.031 -0.052,-0.047 -0.089,-0.047c-0.045,0 -0.095,0.026 -0.148,0.077l-0.056,0.281Z" style="fill:#fff;fill-rule:nonzero;"/></g><g transform="matrix(72,0,0,72,362.989,358.221)"><path d="M0.671,-0.398c-0.067,0.128 -0.135,0.228 -0.203,0.301c-0.068,0.073 -0.128,0.109 -0.181,0.109c-0.038,0 -0.069,-0.015 -0.092,-0.044c-0.024,-0.029 -0.035,-0.068 -0.035,-0.115c0,-0.027 0.005,-0.065 0.014,-0.114l0.097,-0.489c-0.012,0.002 -0.023,0.003 -0.033,0.003c-0.075,0 -0.112,-0.031 -0.112,-0.094l0,-0.011c0.039,0.022 0.083,0.033 0.132,0.033c0.049,0 0.092,-0.012 0.129,-0.036l-0.113,0.587c-0.01,0.053 -0.015,0.089 -0.015,0.109c0,0.055 0.02,0.082 0.06,0.082c0.039,0 0.079,-0.022 0.118,-0.066c0.04,-0.044 0.105,-0.138 0.195,-0.282l0.039,0.027Z" style="fill:#fff;fill-rule:nonzero;"/></g><g transform="matrix(72,0,0,72,392.23,358.221)"><path d="M0.228,-0.203c0,0.095 0.04,0.142 0.121,0.142c0.07,0 0.147,-0.033 0.232,-0.099c0.084,-0.067 0.16,-0.155 0.228,-0.264l0.041,0.023c-0.064,0.119 -0.147,0.218 -0.249,0.296c-0.102,0.078 -0.198,0.117 -0.29,0.117c-0.059,0 -0.105,-0.019 -0.139,-0.056c-0.034,-0.038 -0.051,-0.09 -0.051,-0.155c0,-0.095 0.031,-0.175 0.093,-0.242c0.061,-0.067 0.136,-0.101 0.223,-0.101c0.042,0 0.075,0.011 0.1,0.032c0.026,0.021 0.038,0.049 0.038,0.085c0,0.058 -0.035,0.109 -0.105,0.154c-0.07,0.045 -0.151,0.068 -0.242,0.068Zm0.004,-0.047c0.068,-0.004 0.126,-0.023 0.175,-0.059c0.049,-0.035 0.073,-0.076 0.073,-0.122c0,-0.042 -0.019,-0.063 -0.056,-0.063c-0.044,0 -0.085,0.024 -0.122,0.071c-0.038,0.048 -0.061,0.105 -0.07,0.173Z" style="fill:#fff;fill-rule:nonzero;"/></g><g transform="matrix(72,0,0,72,104.817,546.912)"><path d="M0.029,0l0.09,-0.738l0.096,0l-0.09,0.738l-0.096,0Z" style="fill:#fff;fill-rule:nonzero;"/></g><g transform="matrix(72,0,0,72,121.233,546.912)"><path d="M0.287,-0.446c-0.02,0.001 -0.038,0.005 -0.055,0.013c-0.017,0.008 -0.032,0.019 -0.045,0.034c-0.013,0.014 -0.025,0.031 -0.034,0.051c-0.009,0.019 -0.017,0.041 -0.022,0.064c0.049,-0.007 0.088,-0.014 0.118,-0.021c0.029,-0.008 0.052,-0.017 0.068,-0.026c0.016,-0.009 0.027,-0.019 0.032,-0.029c0.005,-0.01 0.007,-0.021 0.007,-0.033c0,-0.006 -0.001,-0.012 -0.003,-0.018c-0.003,-0.006 -0.007,-0.012 -0.012,-0.017c-0.006,-0.005 -0.013,-0.009 -0.022,-0.012c-0.009,-0.004 -0.019,-0.005 -0.032,-0.005Zm0.145,0.351c-0.017,0.018 -0.034,0.033 -0.051,0.046c-0.016,0.012 -0.033,0.023 -0.05,0.031c-0.017,0.008 -0.035,0.014 -0.054,0.018c-0.018,0.004 -0.039,0.006 -0.061,0.006c-0.029,0 -0.055,-0.005 -0.078,-0.015c-0.024,-0.01 -0.044,-0.023 -0.06,-0.041c-0.016,-0.018 -0.029,-0.04 -0.038,-0.066c-0.009,-0.025 -0.013,-0.054 -0.013,-0.085c0,-0.027 0.003,-0.053 0.008,-0.079c0.006,-0.026 0.014,-0.05 0.024,-0.073c0.011,-0.023 0.024,-0.045 0.039,-0.065c0.016,-0.02 0.033,-0.037 0.053,-0.052c0.02,-0.014 0.041,-0.026 0.065,-0.034c0.024,-0.008 0.049,-0.012 0.076,-0.012c0.026,0 0.049,0.004 0.068,0.011c0.019,0.007 0.035,0.017 0.047,0.028c0.013,0.012 0.022,0.025 0.028,0.039c0.006,0.014 0.009,0.027 0.009,0.041c0,0.022 -0.005,0.042 -0.014,0.06c-0.009,0.019 -0.025,0.035 -0.049,0.05c-0.024,0.015 -0.056,0.028 -0.098,0.039c-0.042,0.011 -0.095,0.02 -0.161,0.027c0,0.003 0,0.006 0,0.009l0,0.009c0,0.043 0.009,0.076 0.028,0.099c0.019,0.022 0.047,0.033 0.085,0.033c0.016,0 0.03,-0.002 0.042,-0.005c0.013,-0.003 0.024,-0.007 0.033,-0.011c0.01,-0.005 0.018,-0.01 0.025,-0.016c0.008,-0.005 0.015,-0.01 0.021,-0.015c0.006,-0.005 0.012,-0.009 0.017,-0.012c0.005,-0.003 0.011,-0.004 0.016,-0.004c0.004,0 0.007,0 0.01,0.002c0.003,0.002 0.006,0.004 0.008,0.007l0.025,0.03Z" style="fill:#fff;fill-rule:nonzero;"/></g><g transform="matrix(106.727,0,0,106.727,164.321,586.888)"><path d="M0.281,-0.371c0.028,0 0.052,-0.004 0.073,-0.012c0.021,-0.008 0.039,-0.019 0.053,-0.033c0.014,-0.014 0.025,-0.031 0.032,-0.05c0.007,-0.019 0.01,-0.04 0.01,-0.063c0,-0.035 -0.01,-0.062 -0.032,-0.081c-0.022,-0.018 -0.055,-0.027 -0.1,-0.027l-0.09,0l-0.033,0.266l0.087,0Zm0.045,-0.347c0.039,0 0.073,0.004 0.101,0.012c0.029,0.008 0.052,0.02 0.07,0.035c0.019,0.015 0.032,0.034 0.041,0.055c0.009,0.021 0.013,0.045 0.013,0.071c0,0.029 -0.004,0.055 -0.012,0.08c-0.009,0.025 -0.021,0.047 -0.037,0.067c-0.015,0.02 -0.034,0.037 -0.057,0.051c-0.023,0.014 -0.048,0.025 -0.077,0.032c0.013,0.008 0.022,0.019 0.03,0.033l0.147,0.282l-0.091,0c-0.018,0 -0.031,-0.007 -0.037,-0.022l-0.128,-0.252c-0.004,-0.008 -0.009,-0.014 -0.015,-0.017c-0.006,-0.004 -0.015,-0.006 -0.027,-0.006l-0.062,0l-0.037,0.297l-0.102,0l0.088,-0.718l0.192,0Z" style="fill:#fff;fill-rule:nonzero;"/></g><g transform="matrix(106.727,0,0,106.727,226.983,586.888)"><path d="M0.228,-0.634l-0.029,0.231l0.248,0.001l-0.011,0.08l-0.247,0l-0.029,0.238l0.309,0l-0.011,0.084l-0.411,0l0.088,-0.718l0.411,0l-0.01,0.084l-0.308,0Z" style="fill:#fff;fill-rule:nonzero;"/></g><g transform="matrix(106.727,0,0,106.727,284.309,586.888)"><path d="M0.292,-0.347c0.027,0 0.051,-0.004 0.072,-0.013c0.021,-0.008 0.039,-0.02 0.053,-0.035c0.014,-0.015 0.025,-0.033 0.032,-0.053c0.007,-0.021 0.011,-0.044 0.011,-0.068c0,-0.037 -0.011,-0.067 -0.033,-0.089c-0.022,-0.022 -0.055,-0.032 -0.1,-0.032l-0.1,0l-0.036,0.29l0.101,0Zm0.045,-0.371c0.039,0 0.072,0.005 0.101,0.014c0.028,0.009 0.051,0.022 0.07,0.039c0.018,0.017 0.032,0.037 0.041,0.061c0.009,0.023 0.013,0.049 0.013,0.078c0,0.038 -0.006,0.073 -0.018,0.105c-0.012,0.032 -0.03,0.059 -0.054,0.082c-0.024,0.023 -0.053,0.041 -0.088,0.054c-0.035,0.013 -0.075,0.019 -0.121,0.019l-0.1,0l-0.033,0.266l-0.102,0l0.088,-0.718l0.203,0Z" style="fill:#fff;fill-rule:nonzero;"/></g><g transform="matrix(106.727,0,0,106.727,344.73,586.888)"><path d="M0.715,-0.409c0,0.06 -0.01,0.116 -0.029,0.167c-0.019,0.051 -0.046,0.095 -0.08,0.132c-0.034,0.037 -0.074,0.066 -0.12,0.087c-0.046,0.02 -0.096,0.03 -0.15,0.031c-0.045,-0.001 -0.085,-0.008 -0.121,-0.024c-0.035,-0.016 -0.065,-0.038 -0.09,-0.066c-0.025,-0.028 -0.045,-0.061 -0.058,-0.1c-0.013,-0.038 -0.02,-0.08 -0.02,-0.126c0,-0.04 0.004,-0.079 0.013,-0.115c0.009,-0.037 0.021,-0.07 0.037,-0.101c0.016,-0.031 0.035,-0.059 0.058,-0.084c0.023,-0.025 0.049,-0.046 0.077,-0.064c0.028,-0.017 0.058,-0.031 0.091,-0.04c0.033,-0.009 0.067,-0.014 0.103,-0.014c0.044,0 0.084,0.008 0.12,0.024c0.036,0.016 0.066,0.038 0.091,0.066c0.025,0.028 0.044,0.061 0.058,0.1c0.013,0.039 0.02,0.081 0.02,0.126Zm-0.106,0.003c0,-0.035 -0.004,-0.067 -0.013,-0.096c-0.009,-0.029 -0.022,-0.053 -0.039,-0.074c-0.017,-0.02 -0.038,-0.036 -0.062,-0.047c-0.024,-0.011 -0.051,-0.016 -0.081,-0.016c-0.039,0 -0.074,0.008 -0.106,0.023c-0.032,0.016 -0.06,0.038 -0.083,0.066c-0.023,0.029 -0.041,0.064 -0.054,0.104c-0.013,0.041 -0.019,0.086 -0.019,0.136c0,0.035 0.004,0.067 0.013,0.096c0.009,0.029 0.022,0.053 0.039,0.073c0.017,0.02 0.037,0.036 0.061,0.047c0.024,0.011 0.051,0.016 0.082,0.016c0.039,0 0.074,-0.007 0.106,-0.023c0.032,-0.015 0.06,-0.037 0.083,-0.066c0.023,-0.028 0.041,-0.063 0.054,-0.103c0.013,-0.041 0.019,-0.086 0.019,-0.136Z" style="fill:#fff;fill-rule:nonzero;"/></g><g transform="matrix(106.727,0,0,106.727,424.095,586.888)"><path d="M0.466,-0.602c-0.004,0.005 -0.008,0.009 -0.012,0.012c-0.004,0.002 -0.008,0.003 -0.014,0.003c-0.005,0 -0.011,-0.002 -0.018,-0.008c-0.006,-0.006 -0.014,-0.012 -0.024,-0.019c-0.01,-0.006 -0.022,-0.012 -0.036,-0.018c-0.014,-0.006 -0.031,-0.008 -0.051,-0.008c-0.021,0 -0.039,0.003 -0.055,0.009c-0.016,0.006 -0.029,0.015 -0.041,0.026c-0.011,0.011 -0.019,0.023 -0.024,0.038c-0.006,0.015 -0.009,0.03 -0.009,0.047c0,0.017 0.004,0.031 0.012,0.042c0.008,0.012 0.018,0.022 0.032,0.03c0.012,0.008 0.027,0.015 0.044,0.021c0.016,0.007 0.033,0.013 0.05,0.02c0.018,0.007 0.035,0.015 0.051,0.023c0.017,0.009 0.032,0.019 0.044,0.031c0.014,0.013 0.024,0.028 0.032,0.045c0.008,0.018 0.012,0.039 0.012,0.064c0,0.034 -0.006,0.067 -0.018,0.097c-0.012,0.031 -0.028,0.057 -0.05,0.08c-0.022,0.023 -0.049,0.042 -0.08,0.055c-0.032,0.013 -0.067,0.02 -0.106,0.02c-0.021,0 -0.042,-0.002 -0.061,-0.007c-0.02,-0.004 -0.038,-0.011 -0.055,-0.019c-0.017,-0.008 -0.033,-0.018 -0.047,-0.029c-0.014,-0.012 -0.026,-0.025 -0.037,-0.039l0.036,-0.049c0.003,-0.004 0.007,-0.007 0.011,-0.01c0.004,-0.002 0.009,-0.004 0.014,-0.004c0.004,0 0.009,0.002 0.014,0.006c0.005,0.003 0.01,0.008 0.016,0.013c0.006,0.005 0.012,0.011 0.02,0.017c0.007,0.006 0.015,0.012 0.025,0.017c0.01,0.005 0.021,0.01 0.034,0.013c0.012,0.004 0.027,0.005 0.043,0.005c0.022,0 0.042,-0.003 0.059,-0.01c0.018,-0.007 0.033,-0.016 0.045,-0.029c0.012,-0.012 0.022,-0.027 0.028,-0.044c0.007,-0.017 0.01,-0.037 0.01,-0.058c0,-0.018 -0.004,-0.032 -0.012,-0.044c-0.008,-0.012 -0.018,-0.022 -0.031,-0.03c-0.013,-0.008 -0.028,-0.015 -0.044,-0.021c-0.017,-0.006 -0.034,-0.012 -0.051,-0.019c-0.017,-0.006 -0.034,-0.013 -0.05,-0.021c-0.017,-0.008 -0.032,-0.018 -0.045,-0.031c-0.013,-0.012 -0.023,-0.028 -0.031,-0.046c-0.008,-0.018 -0.012,-0.04 -0.012,-0.067c0,-0.03 0.006,-0.058 0.017,-0.086c0.011,-0.027 0.026,-0.052 0.046,-0.073c0.021,-0.021 0.046,-0.037 0.075,-0.05c0.029,-0.012 0.062,-0.019 0.098,-0.019c0.038,0 0.072,0.008 0.102,0.022c0.03,0.015 0.054,0.034 0.073,0.058l-0.03,0.044Z" style="fill:#fff;fill-rule:nonzero;"/></g></g><path d="M355.471,1403.15c0,15.078 -1.853,28.303 -5.558,39.675c-3.706,11.372 -8.977,20.891 -15.813,28.558c-6.836,7.667 -15.078,13.417 -24.725,17.25c-9.647,3.833 -20.348,5.75 -32.104,5.75c-10.861,0 -22.233,-1.917 -34.117,-5.75l0.767,-4.983c0.256,-0.639 0.543,-1.278 0.862,-1.917c0.32,-0.639 1.182,-0.958 2.588,-0.958c1.15,0 2.556,0.255 4.217,0.766c1.661,0.512 3.641,1.055 5.941,1.63c2.3,0.575 4.984,1.118 8.05,1.629c3.067,0.511 6.709,0.766 10.925,0.766c10.478,0 19.934,-1.693 28.367,-5.079c8.433,-3.386 15.589,-8.497 21.467,-15.333c5.877,-6.836 10.414,-15.397 13.608,-25.683c3.194,-10.287 4.792,-22.33 4.792,-36.13l0,-181.508l10.733,0l0,181.317Z" style="fill:#fff;fill-rule:nonzero;"/><path d="M712.402,1482.31l-0.383,9.008l-159.083,0l0,-269.483l159.083,0l0,9.008l-148.542,0l0,119.409l125.159,0l0,8.816l-125.159,0l0,123.242l148.925,0Z" style="fill:#fff;fill-rule:nonzero;"/><path d="M1017.97,1249.82c-0.767,1.278 -1.853,1.917 -3.259,1.917c-1.405,0 -3.354,-1.246 -5.845,-3.737c-2.492,-2.492 -5.974,-5.271 -10.446,-8.338c-4.472,-3.067 -10.222,-5.846 -17.25,-8.337c-7.028,-2.492 -15.717,-3.738 -26.067,-3.738c-10.478,0 -19.773,1.565 -27.887,4.696c-8.114,3.13 -14.918,7.379 -20.413,12.746c-5.494,5.366 -9.647,11.532 -12.458,18.496c-2.811,6.963 -4.217,14.279 -4.217,21.945c0,9.839 1.981,18.049 5.942,24.63c3.961,6.58 9.2,12.107 15.716,16.579c6.517,4.472 13.896,8.241 22.138,11.308c8.242,3.067 16.707,6.038 25.396,8.913c8.689,2.875 17.154,5.941 25.396,9.2c8.241,3.258 15.62,7.379 22.137,12.362c6.517,4.983 11.756,11.149 15.717,18.496c3.961,7.347 5.941,16.451 5.941,27.312c0,11.117 -1.884,21.563 -5.654,31.338c-3.769,9.775 -9.264,18.272 -16.483,25.492c-7.219,7.219 -16.036,12.905 -26.45,17.058c-10.414,4.153 -22.265,6.229 -35.554,6.229c-9.072,0 -17.282,-0.799 -24.629,-2.396c-7.348,-1.597 -14.12,-3.897 -20.317,-6.9c-6.197,-3.003 -11.883,-6.676 -17.058,-11.021c-5.175,-4.344 -10.127,-9.263 -14.855,-14.758l2.492,-3.833c0.639,-0.639 1.182,-1.118 1.629,-1.438c0.448,-0.319 1.118,-0.479 2.013,-0.479c0.894,0 2.14,0.799 3.737,2.396c1.598,1.597 3.674,3.578 6.229,5.942c2.556,2.363 5.623,4.919 9.2,7.666c3.578,2.747 7.827,5.303 12.746,7.667c4.92,2.364 10.606,4.344 17.059,5.942c6.452,1.597 13.768,2.395 21.945,2.395c11.628,0 22.042,-1.82 31.242,-5.462c9.2,-3.642 16.963,-8.625 23.288,-14.95c6.325,-6.325 11.148,-13.704 14.47,-22.138c3.323,-8.433 4.984,-17.441 4.984,-27.025c0,-10.222 -1.981,-18.655 -5.942,-25.3c-3.961,-6.644 -9.168,-12.202 -15.621,-16.675c-6.452,-4.472 -13.832,-8.209 -22.137,-11.212c-8.306,-3.003 -16.771,-5.878 -25.396,-8.625c-8.625,-2.747 -17.09,-5.75 -25.396,-9.008c-8.305,-3.259 -15.685,-7.412 -22.137,-12.459c-6.453,-5.047 -11.66,-11.308 -15.621,-18.783c-3.961,-7.475 -5.942,-16.835 -5.942,-28.079c0,-8.817 1.661,-17.25 4.983,-25.3c3.323,-8.05 8.146,-15.174 14.471,-21.371c6.325,-6.197 14.12,-11.149 23.384,-14.854c9.264,-3.706 19.901,-5.559 31.912,-5.559c13.545,0 25.524,2.173 35.938,6.517c10.414,4.345 20.157,11.117 29.229,20.317l-2.3,4.216Z" style="fill:#fff;fill-rule:nonzero;"/><path d="M1305.13,1485.19c13.928,0 26.355,-2.46 37.28,-7.379c10.925,-4.92 20.188,-11.66 27.791,-20.221c7.603,-8.561 13.417,-18.624 17.442,-30.187c4.025,-11.564 6.037,-23.991 6.037,-37.28l0,-168.283l10.734,0l0,168.283c0,14.567 -2.3,28.207 -6.9,40.921c-4.6,12.714 -11.213,23.799 -19.838,33.254c-8.625,9.456 -19.039,16.899 -31.241,22.33c-12.203,5.43 -25.971,8.145 -41.305,8.145c-15.333,0 -29.133,-2.715 -41.4,-8.145c-12.266,-5.431 -22.68,-12.874 -31.241,-22.33c-8.561,-9.455 -15.142,-20.54 -19.742,-33.254c-4.6,-12.714 -6.9,-26.354 -6.9,-40.921l0,-168.283l10.542,0l0,167.9c0,13.289 2.012,25.747 6.037,37.375c4.025,11.628 9.839,21.754 17.442,30.379c7.603,8.625 16.899,15.397 27.887,20.317c10.989,4.919 23.448,7.379 37.375,7.379Z" style="fill:#fff;fill-rule:nonzero;"/><path d="M1728.57,1249.82c-0.767,1.278 -1.853,1.917 -3.258,1.917c-1.406,0 -3.355,-1.246 -5.846,-3.737c-2.492,-2.492 -5.974,-5.271 -10.446,-8.338c-4.472,-3.067 -10.222,-5.846 -17.25,-8.337c-7.028,-2.492 -15.717,-3.738 -26.067,-3.738c-10.477,0 -19.773,1.565 -27.887,4.696c-8.114,3.13 -14.918,7.379 -20.413,12.746c-5.494,5.366 -9.647,11.532 -12.458,18.496c-2.811,6.963 -4.217,14.279 -4.217,21.945c0,9.839 1.981,18.049 5.942,24.63c3.961,6.58 9.2,12.107 15.717,16.579c6.516,4.472 13.895,8.241 22.137,11.308c8.242,3.067 16.707,6.038 25.396,8.913c8.689,2.875 17.154,5.941 25.396,9.2c8.241,3.258 15.621,7.379 22.137,12.362c6.517,4.983 11.756,11.149 15.717,18.496c3.961,7.347 5.942,16.451 5.942,27.312c0,11.117 -1.885,21.563 -5.655,31.338c-3.769,9.775 -9.263,18.272 -16.483,25.492c-7.219,7.219 -16.036,12.905 -26.45,17.058c-10.414,4.153 -22.265,6.229 -35.554,6.229c-9.072,0 -17.282,-0.799 -24.629,-2.396c-7.347,-1.597 -14.12,-3.897 -20.317,-6.9c-6.197,-3.003 -11.883,-6.676 -17.058,-11.021c-5.175,-4.344 -10.127,-9.263 -14.854,-14.758l2.491,-3.833c0.639,-0.639 1.182,-1.118 1.629,-1.438c0.448,-0.319 1.119,-0.479 2.013,-0.479c0.894,0 2.14,0.799 3.737,2.396c1.598,1.597 3.674,3.578 6.23,5.942c2.555,2.363 5.622,4.919 9.2,7.666c3.577,2.747 7.826,5.303 12.745,7.667c4.92,2.364 10.606,4.344 17.059,5.942c6.453,1.597 13.768,2.395 21.946,2.395c11.627,0 22.041,-1.82 31.241,-5.462c9.2,-3.642 16.963,-8.625 23.288,-14.95c6.325,-6.325 11.148,-13.704 14.471,-22.138c3.322,-8.433 4.983,-17.441 4.983,-27.025c0,-10.222 -1.981,-18.655 -5.942,-25.3c-3.961,-6.644 -9.168,-12.202 -15.621,-16.675c-6.452,-4.472 -13.831,-8.209 -22.137,-11.212c-8.306,-3.003 -16.771,-5.878 -25.396,-8.625c-8.625,-2.747 -17.09,-5.75 -25.396,-9.008c-8.305,-3.259 -15.684,-7.412 -22.137,-12.459c-6.453,-5.047 -11.66,-11.308 -15.621,-18.783c-3.961,-7.475 -5.942,-16.835 -5.942,-28.079c0,-8.817 1.661,-17.25 4.984,-25.3c3.322,-8.05 8.145,-15.174 14.47,-21.371c6.325,-6.197 14.12,-11.149 23.384,-14.854c9.264,-3.706 19.901,-5.559 31.912,-5.559c13.545,0 25.524,2.173 35.938,6.517c10.414,4.345 20.157,11.117 29.229,20.317l-2.3,4.216Z" style="fill:#fff;fill-rule:nonzero;"/><rect x="55.833" y="1100.11" width="2453.99" height="1161.11" style="fill:none;stroke:#fff;stroke-width:11.11px;"/></svg>